%TF.GenerationSoftware,KiCad,Pcbnew,5.1.7*%
%TF.CreationDate,2020-10-30T13:38:14+01:00*%
%TF.ProjectId,silly-sound-bastard,73696c6c-792d-4736-9f75-6e642d626173,rev?*%
%TF.SameCoordinates,Original*%
%TF.FileFunction,Soldermask,Top*%
%TF.FilePolarity,Negative*%
%FSLAX46Y46*%
G04 Gerber Fmt 4.6, Leading zero omitted, Abs format (unit mm)*
G04 Created by KiCad (PCBNEW 5.1.7) date 2020-10-30 13:38:14*
%MOMM*%
%LPD*%
G01*
G04 APERTURE LIST*
%ADD10C,1.000000*%
%ADD11C,1.900000*%
%ADD12R,1.900000X1.900000*%
%ADD13O,1.400000X1.400000*%
%ADD14C,1.400000*%
%ADD15C,1.200000*%
%ADD16R,1.200000X1.200000*%
%ADD17R,3.480000X1.846667*%
G04 APERTURE END LIST*
D10*
%TO.C,J2*%
X76875000Y-83145000D03*
X76875000Y-78145000D03*
D11*
X72875000Y-78395000D03*
D12*
X72875000Y-82895000D03*
D11*
X80375000Y-77745000D03*
X80375000Y-83545000D03*
%TD*%
D13*
%TO.C,R17*%
X81280000Y-74930000D03*
D14*
X73660000Y-74930000D03*
%TD*%
D13*
%TO.C,R16*%
X81280000Y-72390000D03*
D14*
X73660000Y-72390000D03*
%TD*%
D13*
%TO.C,R15*%
X81280000Y-69850000D03*
D14*
X73660000Y-69850000D03*
%TD*%
D13*
%TO.C,R14*%
X81280000Y-67310000D03*
D14*
X73660000Y-67310000D03*
%TD*%
D13*
%TO.C,R13*%
X81280000Y-64770000D03*
D14*
X73660000Y-64770000D03*
%TD*%
D13*
%TO.C,R12*%
X81280000Y-62230000D03*
D14*
X73660000Y-62230000D03*
%TD*%
D13*
%TO.C,R11*%
X81280000Y-59690000D03*
D14*
X73660000Y-59690000D03*
%TD*%
D13*
%TO.C,R10*%
X81280000Y-57150000D03*
D14*
X73660000Y-57150000D03*
%TD*%
D13*
%TO.C,R9*%
X69850000Y-77470000D03*
D14*
X62230000Y-77470000D03*
%TD*%
D13*
%TO.C,R8*%
X69850000Y-74930000D03*
D14*
X62230000Y-74930000D03*
%TD*%
D13*
%TO.C,R7*%
X69850000Y-72390000D03*
D14*
X62230000Y-72390000D03*
%TD*%
D13*
%TO.C,R6*%
X69850000Y-69850000D03*
D14*
X62230000Y-69850000D03*
%TD*%
D13*
%TO.C,R5*%
X69850000Y-67310000D03*
D14*
X62230000Y-67310000D03*
%TD*%
D13*
%TO.C,R4*%
X69850000Y-64770000D03*
D14*
X62230000Y-64770000D03*
%TD*%
D13*
%TO.C,R3*%
X69850000Y-62230000D03*
D14*
X62230000Y-62230000D03*
%TD*%
D13*
%TO.C,R2*%
X69850000Y-59690000D03*
D14*
X62230000Y-59690000D03*
%TD*%
D13*
%TO.C,R1*%
X69850000Y-57150000D03*
D14*
X62230000Y-57150000D03*
%TD*%
D15*
%TO.C,C2*%
X68580000Y-82145000D03*
D16*
X68580000Y-80645000D03*
%TD*%
D15*
%TO.C,C1*%
X63500000Y-82145000D03*
D16*
X63500000Y-80645000D03*
%TD*%
D17*
%TO.C,J1*%
X58420000Y-90280000D03*
X58420000Y-87510000D03*
X58420000Y-84740000D03*
X58420000Y-81970000D03*
X58420000Y-79200000D03*
X58420000Y-76430000D03*
X58420000Y-73660000D03*
X58420000Y-70890000D03*
X58420000Y-68120000D03*
X58420000Y-65350000D03*
X58420000Y-62580000D03*
X58420000Y-59810000D03*
X58420000Y-57040000D03*
%TD*%
M02*
