%TF.GenerationSoftware,KiCad,Pcbnew,5.1.7*%
%TF.CreationDate,2020-10-30T13:38:14+01:00*%
%TF.ProjectId,silly-sound-bastard,73696c6c-792d-4736-9f75-6e642d626173,rev?*%
%TF.SameCoordinates,Original*%
%TF.FileFunction,Legend,Top*%
%TF.FilePolarity,Positive*%
%FSLAX46Y46*%
G04 Gerber Fmt 4.6, Leading zero omitted, Abs format (unit mm)*
G04 Created by KiCad (PCBNEW 5.1.7) date 2020-10-30 13:38:14*
%MOMM*%
%LPD*%
G01*
G04 APERTURE LIST*
%ADD10C,0.200000*%
%ADD11C,0.300000*%
%ADD12C,0.120000*%
%ADD13C,0.150000*%
G04 APERTURE END LIST*
D10*
X61392142Y-90547857D02*
X61677857Y-91347857D01*
X61963571Y-90547857D01*
X63049285Y-91347857D02*
X62363571Y-91347857D01*
X62706428Y-91347857D02*
X62706428Y-90147857D01*
X62592142Y-90319285D01*
X62477857Y-90433571D01*
X62363571Y-90490714D01*
X63563571Y-91233571D02*
X63620714Y-91290714D01*
X63563571Y-91347857D01*
X63506428Y-91290714D01*
X63563571Y-91233571D01*
X63563571Y-91347857D01*
X64363571Y-90147857D02*
X64477857Y-90147857D01*
X64592142Y-90205000D01*
X64649285Y-90262142D01*
X64706428Y-90376428D01*
X64763571Y-90605000D01*
X64763571Y-90890714D01*
X64706428Y-91119285D01*
X64649285Y-91233571D01*
X64592142Y-91290714D01*
X64477857Y-91347857D01*
X64363571Y-91347857D01*
X64249285Y-91290714D01*
X64192142Y-91233571D01*
X64135000Y-91119285D01*
X64077857Y-90890714D01*
X64077857Y-90605000D01*
X64135000Y-90376428D01*
X64192142Y-90262142D01*
X64249285Y-90205000D01*
X64363571Y-90147857D01*
X65849285Y-91347857D02*
X65277857Y-91347857D01*
X65277857Y-90147857D01*
X66249285Y-90719285D02*
X66649285Y-90719285D01*
X66820714Y-91347857D02*
X66249285Y-91347857D01*
X66249285Y-90147857D01*
X66820714Y-90147857D01*
X69433333Y-90258809D02*
X69433333Y-88658809D01*
X69433333Y-89268333D02*
X69566666Y-89192142D01*
X69833333Y-89192142D01*
X69966666Y-89268333D01*
X70033333Y-89344523D01*
X70100000Y-89496904D01*
X70100000Y-89954047D01*
X70033333Y-90106428D01*
X69966666Y-90182619D01*
X69833333Y-90258809D01*
X69566666Y-90258809D01*
X69433333Y-90182619D01*
X70566666Y-89192142D02*
X70900000Y-90258809D01*
X71233333Y-89192142D02*
X70900000Y-90258809D01*
X70766666Y-90639761D01*
X70700000Y-90715952D01*
X70566666Y-90792142D01*
X72833333Y-90258809D02*
X72833333Y-88658809D01*
X73633333Y-90258809D01*
X73633333Y-88658809D01*
X74833333Y-90182619D02*
X74700000Y-90258809D01*
X74433333Y-90258809D01*
X74300000Y-90182619D01*
X74233333Y-90030238D01*
X74233333Y-89420714D01*
X74300000Y-89268333D01*
X74433333Y-89192142D01*
X74700000Y-89192142D01*
X74833333Y-89268333D01*
X74900000Y-89420714D01*
X74900000Y-89573095D01*
X74233333Y-89725476D01*
X76100000Y-90182619D02*
X75966666Y-90258809D01*
X75700000Y-90258809D01*
X75566666Y-90182619D01*
X75500000Y-90106428D01*
X75433333Y-89954047D01*
X75433333Y-89496904D01*
X75500000Y-89344523D01*
X75566666Y-89268333D01*
X75700000Y-89192142D01*
X75966666Y-89192142D01*
X76100000Y-89268333D01*
X76700000Y-90258809D02*
X76700000Y-89192142D01*
X76700000Y-89496904D02*
X76766666Y-89344523D01*
X76833333Y-89268333D01*
X76966666Y-89192142D01*
X77100000Y-89192142D01*
X77766666Y-90258809D02*
X77633333Y-90182619D01*
X77566666Y-90106428D01*
X77500000Y-89954047D01*
X77500000Y-89496904D01*
X77566666Y-89344523D01*
X77633333Y-89268333D01*
X77766666Y-89192142D01*
X77966666Y-89192142D01*
X78100000Y-89268333D01*
X78166666Y-89344523D01*
X78233333Y-89496904D01*
X78233333Y-89954047D01*
X78166666Y-90106428D01*
X78100000Y-90182619D01*
X77966666Y-90258809D01*
X77766666Y-90258809D01*
X78700000Y-89192142D02*
X78966666Y-90258809D01*
X79233333Y-89496904D01*
X79500000Y-90258809D01*
X79766666Y-89192142D01*
X80900000Y-90258809D02*
X80900000Y-89420714D01*
X80833333Y-89268333D01*
X80700000Y-89192142D01*
X80433333Y-89192142D01*
X80300000Y-89268333D01*
X80900000Y-90182619D02*
X80766666Y-90258809D01*
X80433333Y-90258809D01*
X80300000Y-90182619D01*
X80233333Y-90030238D01*
X80233333Y-89877857D01*
X80300000Y-89725476D01*
X80433333Y-89649285D01*
X80766666Y-89649285D01*
X80900000Y-89573095D01*
X81566666Y-90258809D02*
X81566666Y-89192142D01*
X81566666Y-89496904D02*
X81633333Y-89344523D01*
X81700000Y-89268333D01*
X81833333Y-89192142D01*
X81966666Y-89192142D01*
X82966666Y-90182619D02*
X82833333Y-90258809D01*
X82566666Y-90258809D01*
X82433333Y-90182619D01*
X82366666Y-90030238D01*
X82366666Y-89420714D01*
X82433333Y-89268333D01*
X82566666Y-89192142D01*
X82833333Y-89192142D01*
X82966666Y-89268333D01*
X83033333Y-89420714D01*
X83033333Y-89573095D01*
X82366666Y-89725476D01*
D11*
X62123333Y-87683095D02*
X62323333Y-87764047D01*
X62656666Y-87764047D01*
X62790000Y-87683095D01*
X62856666Y-87602142D01*
X62923333Y-87440238D01*
X62923333Y-87278333D01*
X62856666Y-87116428D01*
X62790000Y-87035476D01*
X62656666Y-86954523D01*
X62390000Y-86873571D01*
X62256666Y-86792619D01*
X62190000Y-86711666D01*
X62123333Y-86549761D01*
X62123333Y-86387857D01*
X62190000Y-86225952D01*
X62256666Y-86145000D01*
X62390000Y-86064047D01*
X62723333Y-86064047D01*
X62923333Y-86145000D01*
X63523333Y-87764047D02*
X63523333Y-86630714D01*
X63523333Y-86064047D02*
X63456666Y-86145000D01*
X63523333Y-86225952D01*
X63590000Y-86145000D01*
X63523333Y-86064047D01*
X63523333Y-86225952D01*
X64390000Y-87764047D02*
X64256666Y-87683095D01*
X64190000Y-87521190D01*
X64190000Y-86064047D01*
X65123333Y-87764047D02*
X64990000Y-87683095D01*
X64923333Y-87521190D01*
X64923333Y-86064047D01*
X65523333Y-86630714D02*
X65856666Y-87764047D01*
X66190000Y-86630714D02*
X65856666Y-87764047D01*
X65723333Y-88168809D01*
X65656666Y-88249761D01*
X65523333Y-88330714D01*
X67723333Y-87683095D02*
X67923333Y-87764047D01*
X68256666Y-87764047D01*
X68390000Y-87683095D01*
X68456666Y-87602142D01*
X68523333Y-87440238D01*
X68523333Y-87278333D01*
X68456666Y-87116428D01*
X68390000Y-87035476D01*
X68256666Y-86954523D01*
X67990000Y-86873571D01*
X67856666Y-86792619D01*
X67790000Y-86711666D01*
X67723333Y-86549761D01*
X67723333Y-86387857D01*
X67790000Y-86225952D01*
X67856666Y-86145000D01*
X67990000Y-86064047D01*
X68323333Y-86064047D01*
X68523333Y-86145000D01*
X69323333Y-87764047D02*
X69190000Y-87683095D01*
X69123333Y-87602142D01*
X69056666Y-87440238D01*
X69056666Y-86954523D01*
X69123333Y-86792619D01*
X69190000Y-86711666D01*
X69323333Y-86630714D01*
X69523333Y-86630714D01*
X69656666Y-86711666D01*
X69723333Y-86792619D01*
X69790000Y-86954523D01*
X69790000Y-87440238D01*
X69723333Y-87602142D01*
X69656666Y-87683095D01*
X69523333Y-87764047D01*
X69323333Y-87764047D01*
X70990000Y-86630714D02*
X70990000Y-87764047D01*
X70390000Y-86630714D02*
X70390000Y-87521190D01*
X70456666Y-87683095D01*
X70590000Y-87764047D01*
X70790000Y-87764047D01*
X70923333Y-87683095D01*
X70990000Y-87602142D01*
X71656666Y-86630714D02*
X71656666Y-87764047D01*
X71656666Y-86792619D02*
X71723333Y-86711666D01*
X71856666Y-86630714D01*
X72056666Y-86630714D01*
X72190000Y-86711666D01*
X72256666Y-86873571D01*
X72256666Y-87764047D01*
X73523333Y-87764047D02*
X73523333Y-86064047D01*
X73523333Y-87683095D02*
X73390000Y-87764047D01*
X73123333Y-87764047D01*
X72990000Y-87683095D01*
X72923333Y-87602142D01*
X72856666Y-87440238D01*
X72856666Y-86954523D01*
X72923333Y-86792619D01*
X72990000Y-86711666D01*
X73123333Y-86630714D01*
X73390000Y-86630714D01*
X73523333Y-86711666D01*
X75723333Y-86873571D02*
X75923333Y-86954523D01*
X75990000Y-87035476D01*
X76056666Y-87197380D01*
X76056666Y-87440238D01*
X75990000Y-87602142D01*
X75923333Y-87683095D01*
X75790000Y-87764047D01*
X75256666Y-87764047D01*
X75256666Y-86064047D01*
X75723333Y-86064047D01*
X75856666Y-86145000D01*
X75923333Y-86225952D01*
X75990000Y-86387857D01*
X75990000Y-86549761D01*
X75923333Y-86711666D01*
X75856666Y-86792619D01*
X75723333Y-86873571D01*
X75256666Y-86873571D01*
X77256666Y-87764047D02*
X77256666Y-86873571D01*
X77190000Y-86711666D01*
X77056666Y-86630714D01*
X76790000Y-86630714D01*
X76656666Y-86711666D01*
X77256666Y-87683095D02*
X77123333Y-87764047D01*
X76790000Y-87764047D01*
X76656666Y-87683095D01*
X76590000Y-87521190D01*
X76590000Y-87359285D01*
X76656666Y-87197380D01*
X76790000Y-87116428D01*
X77123333Y-87116428D01*
X77256666Y-87035476D01*
X77856666Y-87683095D02*
X77990000Y-87764047D01*
X78256666Y-87764047D01*
X78390000Y-87683095D01*
X78456666Y-87521190D01*
X78456666Y-87440238D01*
X78390000Y-87278333D01*
X78256666Y-87197380D01*
X78056666Y-87197380D01*
X77923333Y-87116428D01*
X77856666Y-86954523D01*
X77856666Y-86873571D01*
X77923333Y-86711666D01*
X78056666Y-86630714D01*
X78256666Y-86630714D01*
X78390000Y-86711666D01*
X78856666Y-86630714D02*
X79390000Y-86630714D01*
X79056666Y-86064047D02*
X79056666Y-87521190D01*
X79123333Y-87683095D01*
X79256666Y-87764047D01*
X79390000Y-87764047D01*
X80456666Y-87764047D02*
X80456666Y-86873571D01*
X80390000Y-86711666D01*
X80256666Y-86630714D01*
X79990000Y-86630714D01*
X79856666Y-86711666D01*
X80456666Y-87683095D02*
X80323333Y-87764047D01*
X79990000Y-87764047D01*
X79856666Y-87683095D01*
X79790000Y-87521190D01*
X79790000Y-87359285D01*
X79856666Y-87197380D01*
X79990000Y-87116428D01*
X80323333Y-87116428D01*
X80456666Y-87035476D01*
X81123333Y-87764047D02*
X81123333Y-86630714D01*
X81123333Y-86954523D02*
X81190000Y-86792619D01*
X81256666Y-86711666D01*
X81390000Y-86630714D01*
X81523333Y-86630714D01*
X82590000Y-87764047D02*
X82590000Y-86064047D01*
X82590000Y-87683095D02*
X82456666Y-87764047D01*
X82190000Y-87764047D01*
X82056666Y-87683095D01*
X81990000Y-87602142D01*
X81923333Y-87440238D01*
X81923333Y-86954523D01*
X81990000Y-86792619D01*
X82056666Y-86711666D01*
X82190000Y-86630714D01*
X82456666Y-86630714D01*
X82590000Y-86711666D01*
D12*
%TO.C,J2*%
X72175000Y-81695000D02*
X72175000Y-79595000D01*
X79175000Y-77195000D02*
X72175000Y-77195000D01*
X79175000Y-84095000D02*
X74075000Y-84095000D01*
X84075000Y-84095000D02*
X81575000Y-84095000D01*
X84075000Y-83345000D02*
X84075000Y-84095000D01*
X84075000Y-77195000D02*
X84075000Y-77945000D01*
X81575000Y-77195000D02*
X84075000Y-77195000D01*
%TO.C,R17*%
X80340000Y-74930000D02*
X79390000Y-74930000D01*
X74600000Y-74930000D02*
X75550000Y-74930000D01*
X79390000Y-74010000D02*
X75550000Y-74010000D01*
X79390000Y-75850000D02*
X79390000Y-74010000D01*
X75550000Y-75850000D02*
X79390000Y-75850000D01*
X75550000Y-74010000D02*
X75550000Y-75850000D01*
%TO.C,R16*%
X80340000Y-72390000D02*
X79390000Y-72390000D01*
X74600000Y-72390000D02*
X75550000Y-72390000D01*
X79390000Y-71470000D02*
X75550000Y-71470000D01*
X79390000Y-73310000D02*
X79390000Y-71470000D01*
X75550000Y-73310000D02*
X79390000Y-73310000D01*
X75550000Y-71470000D02*
X75550000Y-73310000D01*
%TO.C,R15*%
X80340000Y-69850000D02*
X79390000Y-69850000D01*
X74600000Y-69850000D02*
X75550000Y-69850000D01*
X79390000Y-68930000D02*
X75550000Y-68930000D01*
X79390000Y-70770000D02*
X79390000Y-68930000D01*
X75550000Y-70770000D02*
X79390000Y-70770000D01*
X75550000Y-68930000D02*
X75550000Y-70770000D01*
%TO.C,R14*%
X80340000Y-67310000D02*
X79390000Y-67310000D01*
X74600000Y-67310000D02*
X75550000Y-67310000D01*
X79390000Y-66390000D02*
X75550000Y-66390000D01*
X79390000Y-68230000D02*
X79390000Y-66390000D01*
X75550000Y-68230000D02*
X79390000Y-68230000D01*
X75550000Y-66390000D02*
X75550000Y-68230000D01*
%TO.C,R13*%
X80340000Y-64770000D02*
X79390000Y-64770000D01*
X74600000Y-64770000D02*
X75550000Y-64770000D01*
X79390000Y-63850000D02*
X75550000Y-63850000D01*
X79390000Y-65690000D02*
X79390000Y-63850000D01*
X75550000Y-65690000D02*
X79390000Y-65690000D01*
X75550000Y-63850000D02*
X75550000Y-65690000D01*
%TO.C,R12*%
X80340000Y-62230000D02*
X79390000Y-62230000D01*
X74600000Y-62230000D02*
X75550000Y-62230000D01*
X79390000Y-61310000D02*
X75550000Y-61310000D01*
X79390000Y-63150000D02*
X79390000Y-61310000D01*
X75550000Y-63150000D02*
X79390000Y-63150000D01*
X75550000Y-61310000D02*
X75550000Y-63150000D01*
%TO.C,R11*%
X80340000Y-59690000D02*
X79390000Y-59690000D01*
X74600000Y-59690000D02*
X75550000Y-59690000D01*
X79390000Y-58770000D02*
X75550000Y-58770000D01*
X79390000Y-60610000D02*
X79390000Y-58770000D01*
X75550000Y-60610000D02*
X79390000Y-60610000D01*
X75550000Y-58770000D02*
X75550000Y-60610000D01*
%TO.C,R10*%
X80340000Y-57150000D02*
X79390000Y-57150000D01*
X74600000Y-57150000D02*
X75550000Y-57150000D01*
X79390000Y-56230000D02*
X75550000Y-56230000D01*
X79390000Y-58070000D02*
X79390000Y-56230000D01*
X75550000Y-58070000D02*
X79390000Y-58070000D01*
X75550000Y-56230000D02*
X75550000Y-58070000D01*
%TO.C,R9*%
X68910000Y-77470000D02*
X67960000Y-77470000D01*
X63170000Y-77470000D02*
X64120000Y-77470000D01*
X67960000Y-76550000D02*
X64120000Y-76550000D01*
X67960000Y-78390000D02*
X67960000Y-76550000D01*
X64120000Y-78390000D02*
X67960000Y-78390000D01*
X64120000Y-76550000D02*
X64120000Y-78390000D01*
%TO.C,R8*%
X68910000Y-74930000D02*
X67960000Y-74930000D01*
X63170000Y-74930000D02*
X64120000Y-74930000D01*
X67960000Y-74010000D02*
X64120000Y-74010000D01*
X67960000Y-75850000D02*
X67960000Y-74010000D01*
X64120000Y-75850000D02*
X67960000Y-75850000D01*
X64120000Y-74010000D02*
X64120000Y-75850000D01*
%TO.C,R7*%
X68910000Y-72390000D02*
X67960000Y-72390000D01*
X63170000Y-72390000D02*
X64120000Y-72390000D01*
X67960000Y-71470000D02*
X64120000Y-71470000D01*
X67960000Y-73310000D02*
X67960000Y-71470000D01*
X64120000Y-73310000D02*
X67960000Y-73310000D01*
X64120000Y-71470000D02*
X64120000Y-73310000D01*
%TO.C,R6*%
X68910000Y-69850000D02*
X67960000Y-69850000D01*
X63170000Y-69850000D02*
X64120000Y-69850000D01*
X67960000Y-68930000D02*
X64120000Y-68930000D01*
X67960000Y-70770000D02*
X67960000Y-68930000D01*
X64120000Y-70770000D02*
X67960000Y-70770000D01*
X64120000Y-68930000D02*
X64120000Y-70770000D01*
%TO.C,R5*%
X68910000Y-67310000D02*
X67960000Y-67310000D01*
X63170000Y-67310000D02*
X64120000Y-67310000D01*
X67960000Y-66390000D02*
X64120000Y-66390000D01*
X67960000Y-68230000D02*
X67960000Y-66390000D01*
X64120000Y-68230000D02*
X67960000Y-68230000D01*
X64120000Y-66390000D02*
X64120000Y-68230000D01*
%TO.C,R4*%
X68910000Y-64770000D02*
X67960000Y-64770000D01*
X63170000Y-64770000D02*
X64120000Y-64770000D01*
X67960000Y-63850000D02*
X64120000Y-63850000D01*
X67960000Y-65690000D02*
X67960000Y-63850000D01*
X64120000Y-65690000D02*
X67960000Y-65690000D01*
X64120000Y-63850000D02*
X64120000Y-65690000D01*
%TO.C,R3*%
X68910000Y-62230000D02*
X67960000Y-62230000D01*
X63170000Y-62230000D02*
X64120000Y-62230000D01*
X67960000Y-61310000D02*
X64120000Y-61310000D01*
X67960000Y-63150000D02*
X67960000Y-61310000D01*
X64120000Y-63150000D02*
X67960000Y-63150000D01*
X64120000Y-61310000D02*
X64120000Y-63150000D01*
%TO.C,R2*%
X68910000Y-59690000D02*
X67960000Y-59690000D01*
X63170000Y-59690000D02*
X64120000Y-59690000D01*
X67960000Y-58770000D02*
X64120000Y-58770000D01*
X67960000Y-60610000D02*
X67960000Y-58770000D01*
X64120000Y-60610000D02*
X67960000Y-60610000D01*
X64120000Y-58770000D02*
X64120000Y-60610000D01*
%TO.C,R1*%
X68910000Y-57150000D02*
X67960000Y-57150000D01*
X63170000Y-57150000D02*
X64120000Y-57150000D01*
X67960000Y-56230000D02*
X64120000Y-56230000D01*
X67960000Y-58070000D02*
X67960000Y-56230000D01*
X64120000Y-58070000D02*
X67960000Y-58070000D01*
X64120000Y-56230000D02*
X64120000Y-58070000D01*
%TO.C,C2*%
X70700000Y-81395000D02*
G75*
G03*
X70700000Y-81395000I-2120000J0D01*
G01*
X67740000Y-81395000D02*
X66500000Y-81395000D01*
X70660000Y-81395000D02*
X69420000Y-81395000D01*
X67740000Y-81435000D02*
X66500000Y-81435000D01*
X70660000Y-81435000D02*
X69420000Y-81435000D01*
X67740000Y-81475000D02*
X66501000Y-81475000D01*
X70659000Y-81475000D02*
X69420000Y-81475000D01*
X70657000Y-81515000D02*
X69420000Y-81515000D01*
X67740000Y-81515000D02*
X66503000Y-81515000D01*
X70654000Y-81555000D02*
X69420000Y-81555000D01*
X67740000Y-81555000D02*
X66506000Y-81555000D01*
X70651000Y-81595000D02*
X69420000Y-81595000D01*
X67740000Y-81595000D02*
X66509000Y-81595000D01*
X70647000Y-81635000D02*
X69420000Y-81635000D01*
X67740000Y-81635000D02*
X66513000Y-81635000D01*
X70642000Y-81675000D02*
X69420000Y-81675000D01*
X67740000Y-81675000D02*
X66518000Y-81675000D01*
X70636000Y-81715000D02*
X69420000Y-81715000D01*
X67740000Y-81715000D02*
X66524000Y-81715000D01*
X70630000Y-81755000D02*
X69420000Y-81755000D01*
X67740000Y-81755000D02*
X66530000Y-81755000D01*
X70622000Y-81795000D02*
X69420000Y-81795000D01*
X67740000Y-81795000D02*
X66538000Y-81795000D01*
X70614000Y-81835000D02*
X69420000Y-81835000D01*
X67740000Y-81835000D02*
X66546000Y-81835000D01*
X70605000Y-81875000D02*
X69420000Y-81875000D01*
X67740000Y-81875000D02*
X66555000Y-81875000D01*
X70596000Y-81915000D02*
X69420000Y-81915000D01*
X67740000Y-81915000D02*
X66564000Y-81915000D01*
X70585000Y-81955000D02*
X69420000Y-81955000D01*
X67740000Y-81955000D02*
X66575000Y-81955000D01*
X70574000Y-81995000D02*
X69420000Y-81995000D01*
X67740000Y-81995000D02*
X66586000Y-81995000D01*
X70562000Y-82035000D02*
X69420000Y-82035000D01*
X67740000Y-82035000D02*
X66598000Y-82035000D01*
X70548000Y-82075000D02*
X69420000Y-82075000D01*
X67740000Y-82075000D02*
X66612000Y-82075000D01*
X70534000Y-82116000D02*
X69420000Y-82116000D01*
X67740000Y-82116000D02*
X66626000Y-82116000D01*
X70520000Y-82156000D02*
X69420000Y-82156000D01*
X67740000Y-82156000D02*
X66640000Y-82156000D01*
X70504000Y-82196000D02*
X69420000Y-82196000D01*
X67740000Y-82196000D02*
X66656000Y-82196000D01*
X70487000Y-82236000D02*
X69420000Y-82236000D01*
X67740000Y-82236000D02*
X66673000Y-82236000D01*
X70469000Y-82276000D02*
X69420000Y-82276000D01*
X67740000Y-82276000D02*
X66691000Y-82276000D01*
X70450000Y-82316000D02*
X69420000Y-82316000D01*
X67740000Y-82316000D02*
X66710000Y-82316000D01*
X70431000Y-82356000D02*
X69420000Y-82356000D01*
X67740000Y-82356000D02*
X66729000Y-82356000D01*
X70410000Y-82396000D02*
X69420000Y-82396000D01*
X67740000Y-82396000D02*
X66750000Y-82396000D01*
X70388000Y-82436000D02*
X69420000Y-82436000D01*
X67740000Y-82436000D02*
X66772000Y-82436000D01*
X70365000Y-82476000D02*
X69420000Y-82476000D01*
X67740000Y-82476000D02*
X66795000Y-82476000D01*
X70340000Y-82516000D02*
X69420000Y-82516000D01*
X67740000Y-82516000D02*
X66820000Y-82516000D01*
X70315000Y-82556000D02*
X69420000Y-82556000D01*
X67740000Y-82556000D02*
X66845000Y-82556000D01*
X70288000Y-82596000D02*
X69420000Y-82596000D01*
X67740000Y-82596000D02*
X66872000Y-82596000D01*
X70260000Y-82636000D02*
X69420000Y-82636000D01*
X67740000Y-82636000D02*
X66900000Y-82636000D01*
X70230000Y-82676000D02*
X69420000Y-82676000D01*
X67740000Y-82676000D02*
X66930000Y-82676000D01*
X70199000Y-82716000D02*
X69420000Y-82716000D01*
X67740000Y-82716000D02*
X66961000Y-82716000D01*
X70167000Y-82756000D02*
X69420000Y-82756000D01*
X67740000Y-82756000D02*
X66993000Y-82756000D01*
X70132000Y-82796000D02*
X69420000Y-82796000D01*
X67740000Y-82796000D02*
X67028000Y-82796000D01*
X70096000Y-82836000D02*
X69420000Y-82836000D01*
X67740000Y-82836000D02*
X67064000Y-82836000D01*
X70058000Y-82876000D02*
X69420000Y-82876000D01*
X67740000Y-82876000D02*
X67102000Y-82876000D01*
X70018000Y-82916000D02*
X69420000Y-82916000D01*
X67740000Y-82916000D02*
X67142000Y-82916000D01*
X69976000Y-82956000D02*
X69420000Y-82956000D01*
X67740000Y-82956000D02*
X67184000Y-82956000D01*
X69931000Y-82996000D02*
X67229000Y-82996000D01*
X69884000Y-83036000D02*
X67276000Y-83036000D01*
X69834000Y-83076000D02*
X67326000Y-83076000D01*
X69780000Y-83116000D02*
X67380000Y-83116000D01*
X69722000Y-83156000D02*
X67438000Y-83156000D01*
X69660000Y-83196000D02*
X67500000Y-83196000D01*
X69593000Y-83236000D02*
X67567000Y-83236000D01*
X69520000Y-83276000D02*
X67640000Y-83276000D01*
X69439000Y-83316000D02*
X67721000Y-83316000D01*
X69348000Y-83356000D02*
X67812000Y-83356000D01*
X69244000Y-83396000D02*
X67916000Y-83396000D01*
X69117000Y-83436000D02*
X68043000Y-83436000D01*
X68950000Y-83476000D02*
X68210000Y-83476000D01*
X69775000Y-79125199D02*
X69775000Y-79525199D01*
X69975000Y-79325199D02*
X69575000Y-79325199D01*
%TO.C,C1*%
X65620000Y-81395000D02*
G75*
G03*
X65620000Y-81395000I-2120000J0D01*
G01*
X62660000Y-81395000D02*
X61420000Y-81395000D01*
X65580000Y-81395000D02*
X64340000Y-81395000D01*
X62660000Y-81435000D02*
X61420000Y-81435000D01*
X65580000Y-81435000D02*
X64340000Y-81435000D01*
X62660000Y-81475000D02*
X61421000Y-81475000D01*
X65579000Y-81475000D02*
X64340000Y-81475000D01*
X65577000Y-81515000D02*
X64340000Y-81515000D01*
X62660000Y-81515000D02*
X61423000Y-81515000D01*
X65574000Y-81555000D02*
X64340000Y-81555000D01*
X62660000Y-81555000D02*
X61426000Y-81555000D01*
X65571000Y-81595000D02*
X64340000Y-81595000D01*
X62660000Y-81595000D02*
X61429000Y-81595000D01*
X65567000Y-81635000D02*
X64340000Y-81635000D01*
X62660000Y-81635000D02*
X61433000Y-81635000D01*
X65562000Y-81675000D02*
X64340000Y-81675000D01*
X62660000Y-81675000D02*
X61438000Y-81675000D01*
X65556000Y-81715000D02*
X64340000Y-81715000D01*
X62660000Y-81715000D02*
X61444000Y-81715000D01*
X65550000Y-81755000D02*
X64340000Y-81755000D01*
X62660000Y-81755000D02*
X61450000Y-81755000D01*
X65542000Y-81795000D02*
X64340000Y-81795000D01*
X62660000Y-81795000D02*
X61458000Y-81795000D01*
X65534000Y-81835000D02*
X64340000Y-81835000D01*
X62660000Y-81835000D02*
X61466000Y-81835000D01*
X65525000Y-81875000D02*
X64340000Y-81875000D01*
X62660000Y-81875000D02*
X61475000Y-81875000D01*
X65516000Y-81915000D02*
X64340000Y-81915000D01*
X62660000Y-81915000D02*
X61484000Y-81915000D01*
X65505000Y-81955000D02*
X64340000Y-81955000D01*
X62660000Y-81955000D02*
X61495000Y-81955000D01*
X65494000Y-81995000D02*
X64340000Y-81995000D01*
X62660000Y-81995000D02*
X61506000Y-81995000D01*
X65482000Y-82035000D02*
X64340000Y-82035000D01*
X62660000Y-82035000D02*
X61518000Y-82035000D01*
X65468000Y-82075000D02*
X64340000Y-82075000D01*
X62660000Y-82075000D02*
X61532000Y-82075000D01*
X65454000Y-82116000D02*
X64340000Y-82116000D01*
X62660000Y-82116000D02*
X61546000Y-82116000D01*
X65440000Y-82156000D02*
X64340000Y-82156000D01*
X62660000Y-82156000D02*
X61560000Y-82156000D01*
X65424000Y-82196000D02*
X64340000Y-82196000D01*
X62660000Y-82196000D02*
X61576000Y-82196000D01*
X65407000Y-82236000D02*
X64340000Y-82236000D01*
X62660000Y-82236000D02*
X61593000Y-82236000D01*
X65389000Y-82276000D02*
X64340000Y-82276000D01*
X62660000Y-82276000D02*
X61611000Y-82276000D01*
X65370000Y-82316000D02*
X64340000Y-82316000D01*
X62660000Y-82316000D02*
X61630000Y-82316000D01*
X65351000Y-82356000D02*
X64340000Y-82356000D01*
X62660000Y-82356000D02*
X61649000Y-82356000D01*
X65330000Y-82396000D02*
X64340000Y-82396000D01*
X62660000Y-82396000D02*
X61670000Y-82396000D01*
X65308000Y-82436000D02*
X64340000Y-82436000D01*
X62660000Y-82436000D02*
X61692000Y-82436000D01*
X65285000Y-82476000D02*
X64340000Y-82476000D01*
X62660000Y-82476000D02*
X61715000Y-82476000D01*
X65260000Y-82516000D02*
X64340000Y-82516000D01*
X62660000Y-82516000D02*
X61740000Y-82516000D01*
X65235000Y-82556000D02*
X64340000Y-82556000D01*
X62660000Y-82556000D02*
X61765000Y-82556000D01*
X65208000Y-82596000D02*
X64340000Y-82596000D01*
X62660000Y-82596000D02*
X61792000Y-82596000D01*
X65180000Y-82636000D02*
X64340000Y-82636000D01*
X62660000Y-82636000D02*
X61820000Y-82636000D01*
X65150000Y-82676000D02*
X64340000Y-82676000D01*
X62660000Y-82676000D02*
X61850000Y-82676000D01*
X65119000Y-82716000D02*
X64340000Y-82716000D01*
X62660000Y-82716000D02*
X61881000Y-82716000D01*
X65087000Y-82756000D02*
X64340000Y-82756000D01*
X62660000Y-82756000D02*
X61913000Y-82756000D01*
X65052000Y-82796000D02*
X64340000Y-82796000D01*
X62660000Y-82796000D02*
X61948000Y-82796000D01*
X65016000Y-82836000D02*
X64340000Y-82836000D01*
X62660000Y-82836000D02*
X61984000Y-82836000D01*
X64978000Y-82876000D02*
X64340000Y-82876000D01*
X62660000Y-82876000D02*
X62022000Y-82876000D01*
X64938000Y-82916000D02*
X64340000Y-82916000D01*
X62660000Y-82916000D02*
X62062000Y-82916000D01*
X64896000Y-82956000D02*
X64340000Y-82956000D01*
X62660000Y-82956000D02*
X62104000Y-82956000D01*
X64851000Y-82996000D02*
X62149000Y-82996000D01*
X64804000Y-83036000D02*
X62196000Y-83036000D01*
X64754000Y-83076000D02*
X62246000Y-83076000D01*
X64700000Y-83116000D02*
X62300000Y-83116000D01*
X64642000Y-83156000D02*
X62358000Y-83156000D01*
X64580000Y-83196000D02*
X62420000Y-83196000D01*
X64513000Y-83236000D02*
X62487000Y-83236000D01*
X64440000Y-83276000D02*
X62560000Y-83276000D01*
X64359000Y-83316000D02*
X62641000Y-83316000D01*
X64268000Y-83356000D02*
X62732000Y-83356000D01*
X64164000Y-83396000D02*
X62836000Y-83396000D01*
X64037000Y-83436000D02*
X62963000Y-83436000D01*
X63870000Y-83476000D02*
X63130000Y-83476000D01*
X64695000Y-79125199D02*
X64695000Y-79525199D01*
X64895000Y-79325199D02*
X64495000Y-79325199D01*
%TO.C,J1*%
X60660000Y-55616667D02*
X60660000Y-59810000D01*
X58420000Y-55616667D02*
X60660000Y-55616667D01*
X60420000Y-55856667D02*
X56680000Y-55856667D01*
X60420000Y-91463333D02*
X60420000Y-55856667D01*
X56680000Y-91463333D02*
X60420000Y-91463333D01*
%TO.C,J2*%
D13*
X82716666Y-82478333D02*
X82716666Y-82002142D01*
X83002380Y-82573571D02*
X82002380Y-82240238D01*
X83002380Y-81906904D01*
X82335714Y-81145000D02*
X83002380Y-81145000D01*
X82335714Y-81573571D02*
X82859523Y-81573571D01*
X82954761Y-81525952D01*
X83002380Y-81430714D01*
X83002380Y-81287857D01*
X82954761Y-81192619D01*
X82907142Y-81145000D01*
X83002380Y-80240238D02*
X82002380Y-80240238D01*
X82954761Y-80240238D02*
X83002380Y-80335476D01*
X83002380Y-80525952D01*
X82954761Y-80621190D01*
X82907142Y-80668809D01*
X82811904Y-80716428D01*
X82526190Y-80716428D01*
X82430952Y-80668809D01*
X82383333Y-80621190D01*
X82335714Y-80525952D01*
X82335714Y-80335476D01*
X82383333Y-80240238D01*
X83002380Y-79764047D02*
X82335714Y-79764047D01*
X82002380Y-79764047D02*
X82050000Y-79811666D01*
X82097619Y-79764047D01*
X82050000Y-79716428D01*
X82002380Y-79764047D01*
X82097619Y-79764047D01*
X83002380Y-79145000D02*
X82954761Y-79240238D01*
X82907142Y-79287857D01*
X82811904Y-79335476D01*
X82526190Y-79335476D01*
X82430952Y-79287857D01*
X82383333Y-79240238D01*
X82335714Y-79145000D01*
X82335714Y-79002142D01*
X82383333Y-78906904D01*
X82430952Y-78859285D01*
X82526190Y-78811666D01*
X82811904Y-78811666D01*
X82907142Y-78859285D01*
X82954761Y-78906904D01*
X83002380Y-79002142D01*
X83002380Y-79145000D01*
%TO.C,R17*%
X75922380Y-74382380D02*
X76589047Y-74382380D01*
X76160476Y-75382380D01*
X76970000Y-75287142D02*
X77017619Y-75334761D01*
X76970000Y-75382380D01*
X76922380Y-75334761D01*
X76970000Y-75287142D01*
X76970000Y-75382380D01*
X77922380Y-74382380D02*
X77446190Y-74382380D01*
X77398571Y-74858571D01*
X77446190Y-74810952D01*
X77541428Y-74763333D01*
X77779523Y-74763333D01*
X77874761Y-74810952D01*
X77922380Y-74858571D01*
X77970000Y-74953809D01*
X77970000Y-75191904D01*
X77922380Y-75287142D01*
X77874761Y-75334761D01*
X77779523Y-75382380D01*
X77541428Y-75382380D01*
X77446190Y-75334761D01*
X77398571Y-75287142D01*
X78398571Y-75382380D02*
X78398571Y-74382380D01*
X78970000Y-75382380D02*
X78541428Y-74810952D01*
X78970000Y-74382380D02*
X78398571Y-74953809D01*
%TO.C,R16*%
X75922380Y-71842380D02*
X76589047Y-71842380D01*
X76160476Y-72842380D01*
X76970000Y-72747142D02*
X77017619Y-72794761D01*
X76970000Y-72842380D01*
X76922380Y-72794761D01*
X76970000Y-72747142D01*
X76970000Y-72842380D01*
X77922380Y-71842380D02*
X77446190Y-71842380D01*
X77398571Y-72318571D01*
X77446190Y-72270952D01*
X77541428Y-72223333D01*
X77779523Y-72223333D01*
X77874761Y-72270952D01*
X77922380Y-72318571D01*
X77970000Y-72413809D01*
X77970000Y-72651904D01*
X77922380Y-72747142D01*
X77874761Y-72794761D01*
X77779523Y-72842380D01*
X77541428Y-72842380D01*
X77446190Y-72794761D01*
X77398571Y-72747142D01*
X78398571Y-72842380D02*
X78398571Y-71842380D01*
X78970000Y-72842380D02*
X78541428Y-72270952D01*
X78970000Y-71842380D02*
X78398571Y-72413809D01*
%TO.C,R15*%
X75922380Y-69302380D02*
X76589047Y-69302380D01*
X76160476Y-70302380D01*
X76970000Y-70207142D02*
X77017619Y-70254761D01*
X76970000Y-70302380D01*
X76922380Y-70254761D01*
X76970000Y-70207142D01*
X76970000Y-70302380D01*
X77922380Y-69302380D02*
X77446190Y-69302380D01*
X77398571Y-69778571D01*
X77446190Y-69730952D01*
X77541428Y-69683333D01*
X77779523Y-69683333D01*
X77874761Y-69730952D01*
X77922380Y-69778571D01*
X77970000Y-69873809D01*
X77970000Y-70111904D01*
X77922380Y-70207142D01*
X77874761Y-70254761D01*
X77779523Y-70302380D01*
X77541428Y-70302380D01*
X77446190Y-70254761D01*
X77398571Y-70207142D01*
X78398571Y-70302380D02*
X78398571Y-69302380D01*
X78970000Y-70302380D02*
X78541428Y-69730952D01*
X78970000Y-69302380D02*
X78398571Y-69873809D01*
%TO.C,R14*%
X75922380Y-66762380D02*
X76589047Y-66762380D01*
X76160476Y-67762380D01*
X76970000Y-67667142D02*
X77017619Y-67714761D01*
X76970000Y-67762380D01*
X76922380Y-67714761D01*
X76970000Y-67667142D01*
X76970000Y-67762380D01*
X77922380Y-66762380D02*
X77446190Y-66762380D01*
X77398571Y-67238571D01*
X77446190Y-67190952D01*
X77541428Y-67143333D01*
X77779523Y-67143333D01*
X77874761Y-67190952D01*
X77922380Y-67238571D01*
X77970000Y-67333809D01*
X77970000Y-67571904D01*
X77922380Y-67667142D01*
X77874761Y-67714761D01*
X77779523Y-67762380D01*
X77541428Y-67762380D01*
X77446190Y-67714761D01*
X77398571Y-67667142D01*
X78398571Y-67762380D02*
X78398571Y-66762380D01*
X78970000Y-67762380D02*
X78541428Y-67190952D01*
X78970000Y-66762380D02*
X78398571Y-67333809D01*
%TO.C,R13*%
X75922380Y-64222380D02*
X76589047Y-64222380D01*
X76160476Y-65222380D01*
X76970000Y-65127142D02*
X77017619Y-65174761D01*
X76970000Y-65222380D01*
X76922380Y-65174761D01*
X76970000Y-65127142D01*
X76970000Y-65222380D01*
X77922380Y-64222380D02*
X77446190Y-64222380D01*
X77398571Y-64698571D01*
X77446190Y-64650952D01*
X77541428Y-64603333D01*
X77779523Y-64603333D01*
X77874761Y-64650952D01*
X77922380Y-64698571D01*
X77970000Y-64793809D01*
X77970000Y-65031904D01*
X77922380Y-65127142D01*
X77874761Y-65174761D01*
X77779523Y-65222380D01*
X77541428Y-65222380D01*
X77446190Y-65174761D01*
X77398571Y-65127142D01*
X78398571Y-65222380D02*
X78398571Y-64222380D01*
X78970000Y-65222380D02*
X78541428Y-64650952D01*
X78970000Y-64222380D02*
X78398571Y-64793809D01*
%TO.C,R12*%
X75922380Y-61682380D02*
X76589047Y-61682380D01*
X76160476Y-62682380D01*
X76970000Y-62587142D02*
X77017619Y-62634761D01*
X76970000Y-62682380D01*
X76922380Y-62634761D01*
X76970000Y-62587142D01*
X76970000Y-62682380D01*
X77922380Y-61682380D02*
X77446190Y-61682380D01*
X77398571Y-62158571D01*
X77446190Y-62110952D01*
X77541428Y-62063333D01*
X77779523Y-62063333D01*
X77874761Y-62110952D01*
X77922380Y-62158571D01*
X77970000Y-62253809D01*
X77970000Y-62491904D01*
X77922380Y-62587142D01*
X77874761Y-62634761D01*
X77779523Y-62682380D01*
X77541428Y-62682380D01*
X77446190Y-62634761D01*
X77398571Y-62587142D01*
X78398571Y-62682380D02*
X78398571Y-61682380D01*
X78970000Y-62682380D02*
X78541428Y-62110952D01*
X78970000Y-61682380D02*
X78398571Y-62253809D01*
%TO.C,R11*%
X75922380Y-59142380D02*
X76589047Y-59142380D01*
X76160476Y-60142380D01*
X76970000Y-60047142D02*
X77017619Y-60094761D01*
X76970000Y-60142380D01*
X76922380Y-60094761D01*
X76970000Y-60047142D01*
X76970000Y-60142380D01*
X77922380Y-59142380D02*
X77446190Y-59142380D01*
X77398571Y-59618571D01*
X77446190Y-59570952D01*
X77541428Y-59523333D01*
X77779523Y-59523333D01*
X77874761Y-59570952D01*
X77922380Y-59618571D01*
X77970000Y-59713809D01*
X77970000Y-59951904D01*
X77922380Y-60047142D01*
X77874761Y-60094761D01*
X77779523Y-60142380D01*
X77541428Y-60142380D01*
X77446190Y-60094761D01*
X77398571Y-60047142D01*
X78398571Y-60142380D02*
X78398571Y-59142380D01*
X78970000Y-60142380D02*
X78541428Y-59570952D01*
X78970000Y-59142380D02*
X78398571Y-59713809D01*
%TO.C,R10*%
X75922380Y-56602380D02*
X76589047Y-56602380D01*
X76160476Y-57602380D01*
X76970000Y-57507142D02*
X77017619Y-57554761D01*
X76970000Y-57602380D01*
X76922380Y-57554761D01*
X76970000Y-57507142D01*
X76970000Y-57602380D01*
X77922380Y-56602380D02*
X77446190Y-56602380D01*
X77398571Y-57078571D01*
X77446190Y-57030952D01*
X77541428Y-56983333D01*
X77779523Y-56983333D01*
X77874761Y-57030952D01*
X77922380Y-57078571D01*
X77970000Y-57173809D01*
X77970000Y-57411904D01*
X77922380Y-57507142D01*
X77874761Y-57554761D01*
X77779523Y-57602380D01*
X77541428Y-57602380D01*
X77446190Y-57554761D01*
X77398571Y-57507142D01*
X78398571Y-57602380D02*
X78398571Y-56602380D01*
X78970000Y-57602380D02*
X78541428Y-57030952D01*
X78970000Y-56602380D02*
X78398571Y-57173809D01*
%TO.C,R9*%
X65349523Y-77922380D02*
X64778095Y-77922380D01*
X65063809Y-77922380D02*
X65063809Y-76922380D01*
X64968571Y-77065238D01*
X64873333Y-77160476D01*
X64778095Y-77208095D01*
X66254285Y-76922380D02*
X65778095Y-76922380D01*
X65730476Y-77398571D01*
X65778095Y-77350952D01*
X65873333Y-77303333D01*
X66111428Y-77303333D01*
X66206666Y-77350952D01*
X66254285Y-77398571D01*
X66301904Y-77493809D01*
X66301904Y-77731904D01*
X66254285Y-77827142D01*
X66206666Y-77874761D01*
X66111428Y-77922380D01*
X65873333Y-77922380D01*
X65778095Y-77874761D01*
X65730476Y-77827142D01*
X66730476Y-77922380D02*
X66730476Y-76922380D01*
X67301904Y-77922380D02*
X66873333Y-77350952D01*
X67301904Y-76922380D02*
X66730476Y-77493809D01*
%TO.C,R8*%
X65349523Y-75382380D02*
X64778095Y-75382380D01*
X65063809Y-75382380D02*
X65063809Y-74382380D01*
X64968571Y-74525238D01*
X64873333Y-74620476D01*
X64778095Y-74668095D01*
X66254285Y-74382380D02*
X65778095Y-74382380D01*
X65730476Y-74858571D01*
X65778095Y-74810952D01*
X65873333Y-74763333D01*
X66111428Y-74763333D01*
X66206666Y-74810952D01*
X66254285Y-74858571D01*
X66301904Y-74953809D01*
X66301904Y-75191904D01*
X66254285Y-75287142D01*
X66206666Y-75334761D01*
X66111428Y-75382380D01*
X65873333Y-75382380D01*
X65778095Y-75334761D01*
X65730476Y-75287142D01*
X66730476Y-75382380D02*
X66730476Y-74382380D01*
X67301904Y-75382380D02*
X66873333Y-74810952D01*
X67301904Y-74382380D02*
X66730476Y-74953809D01*
%TO.C,R7*%
X65349523Y-72842380D02*
X64778095Y-72842380D01*
X65063809Y-72842380D02*
X65063809Y-71842380D01*
X64968571Y-71985238D01*
X64873333Y-72080476D01*
X64778095Y-72128095D01*
X66254285Y-71842380D02*
X65778095Y-71842380D01*
X65730476Y-72318571D01*
X65778095Y-72270952D01*
X65873333Y-72223333D01*
X66111428Y-72223333D01*
X66206666Y-72270952D01*
X66254285Y-72318571D01*
X66301904Y-72413809D01*
X66301904Y-72651904D01*
X66254285Y-72747142D01*
X66206666Y-72794761D01*
X66111428Y-72842380D01*
X65873333Y-72842380D01*
X65778095Y-72794761D01*
X65730476Y-72747142D01*
X66730476Y-72842380D02*
X66730476Y-71842380D01*
X67301904Y-72842380D02*
X66873333Y-72270952D01*
X67301904Y-71842380D02*
X66730476Y-72413809D01*
%TO.C,R6*%
X65349523Y-70302380D02*
X64778095Y-70302380D01*
X65063809Y-70302380D02*
X65063809Y-69302380D01*
X64968571Y-69445238D01*
X64873333Y-69540476D01*
X64778095Y-69588095D01*
X66254285Y-69302380D02*
X65778095Y-69302380D01*
X65730476Y-69778571D01*
X65778095Y-69730952D01*
X65873333Y-69683333D01*
X66111428Y-69683333D01*
X66206666Y-69730952D01*
X66254285Y-69778571D01*
X66301904Y-69873809D01*
X66301904Y-70111904D01*
X66254285Y-70207142D01*
X66206666Y-70254761D01*
X66111428Y-70302380D01*
X65873333Y-70302380D01*
X65778095Y-70254761D01*
X65730476Y-70207142D01*
X66730476Y-70302380D02*
X66730476Y-69302380D01*
X67301904Y-70302380D02*
X66873333Y-69730952D01*
X67301904Y-69302380D02*
X66730476Y-69873809D01*
%TO.C,R5*%
X65349523Y-67762380D02*
X64778095Y-67762380D01*
X65063809Y-67762380D02*
X65063809Y-66762380D01*
X64968571Y-66905238D01*
X64873333Y-67000476D01*
X64778095Y-67048095D01*
X66254285Y-66762380D02*
X65778095Y-66762380D01*
X65730476Y-67238571D01*
X65778095Y-67190952D01*
X65873333Y-67143333D01*
X66111428Y-67143333D01*
X66206666Y-67190952D01*
X66254285Y-67238571D01*
X66301904Y-67333809D01*
X66301904Y-67571904D01*
X66254285Y-67667142D01*
X66206666Y-67714761D01*
X66111428Y-67762380D01*
X65873333Y-67762380D01*
X65778095Y-67714761D01*
X65730476Y-67667142D01*
X66730476Y-67762380D02*
X66730476Y-66762380D01*
X67301904Y-67762380D02*
X66873333Y-67190952D01*
X67301904Y-66762380D02*
X66730476Y-67333809D01*
%TO.C,R4*%
X65349523Y-65222380D02*
X64778095Y-65222380D01*
X65063809Y-65222380D02*
X65063809Y-64222380D01*
X64968571Y-64365238D01*
X64873333Y-64460476D01*
X64778095Y-64508095D01*
X66254285Y-64222380D02*
X65778095Y-64222380D01*
X65730476Y-64698571D01*
X65778095Y-64650952D01*
X65873333Y-64603333D01*
X66111428Y-64603333D01*
X66206666Y-64650952D01*
X66254285Y-64698571D01*
X66301904Y-64793809D01*
X66301904Y-65031904D01*
X66254285Y-65127142D01*
X66206666Y-65174761D01*
X66111428Y-65222380D01*
X65873333Y-65222380D01*
X65778095Y-65174761D01*
X65730476Y-65127142D01*
X66730476Y-65222380D02*
X66730476Y-64222380D01*
X67301904Y-65222380D02*
X66873333Y-64650952D01*
X67301904Y-64222380D02*
X66730476Y-64793809D01*
%TO.C,R3*%
X65349523Y-62682380D02*
X64778095Y-62682380D01*
X65063809Y-62682380D02*
X65063809Y-61682380D01*
X64968571Y-61825238D01*
X64873333Y-61920476D01*
X64778095Y-61968095D01*
X66254285Y-61682380D02*
X65778095Y-61682380D01*
X65730476Y-62158571D01*
X65778095Y-62110952D01*
X65873333Y-62063333D01*
X66111428Y-62063333D01*
X66206666Y-62110952D01*
X66254285Y-62158571D01*
X66301904Y-62253809D01*
X66301904Y-62491904D01*
X66254285Y-62587142D01*
X66206666Y-62634761D01*
X66111428Y-62682380D01*
X65873333Y-62682380D01*
X65778095Y-62634761D01*
X65730476Y-62587142D01*
X66730476Y-62682380D02*
X66730476Y-61682380D01*
X67301904Y-62682380D02*
X66873333Y-62110952D01*
X67301904Y-61682380D02*
X66730476Y-62253809D01*
%TO.C,R2*%
X65349523Y-60142380D02*
X64778095Y-60142380D01*
X65063809Y-60142380D02*
X65063809Y-59142380D01*
X64968571Y-59285238D01*
X64873333Y-59380476D01*
X64778095Y-59428095D01*
X66254285Y-59142380D02*
X65778095Y-59142380D01*
X65730476Y-59618571D01*
X65778095Y-59570952D01*
X65873333Y-59523333D01*
X66111428Y-59523333D01*
X66206666Y-59570952D01*
X66254285Y-59618571D01*
X66301904Y-59713809D01*
X66301904Y-59951904D01*
X66254285Y-60047142D01*
X66206666Y-60094761D01*
X66111428Y-60142380D01*
X65873333Y-60142380D01*
X65778095Y-60094761D01*
X65730476Y-60047142D01*
X66730476Y-60142380D02*
X66730476Y-59142380D01*
X67301904Y-60142380D02*
X66873333Y-59570952D01*
X67301904Y-59142380D02*
X66730476Y-59713809D01*
%TO.C,R1*%
X65349523Y-57602380D02*
X64778095Y-57602380D01*
X65063809Y-57602380D02*
X65063809Y-56602380D01*
X64968571Y-56745238D01*
X64873333Y-56840476D01*
X64778095Y-56888095D01*
X66254285Y-56602380D02*
X65778095Y-56602380D01*
X65730476Y-57078571D01*
X65778095Y-57030952D01*
X65873333Y-56983333D01*
X66111428Y-56983333D01*
X66206666Y-57030952D01*
X66254285Y-57078571D01*
X66301904Y-57173809D01*
X66301904Y-57411904D01*
X66254285Y-57507142D01*
X66206666Y-57554761D01*
X66111428Y-57602380D01*
X65873333Y-57602380D01*
X65778095Y-57554761D01*
X65730476Y-57507142D01*
X66730476Y-57602380D02*
X66730476Y-56602380D01*
X67301904Y-57602380D02*
X66873333Y-57030952D01*
X67301904Y-56602380D02*
X66730476Y-57173809D01*
%TO.C,C2*%
X67984761Y-84907380D02*
X67413333Y-84907380D01*
X67699047Y-84907380D02*
X67699047Y-83907380D01*
X67603809Y-84050238D01*
X67508571Y-84145476D01*
X67413333Y-84193095D01*
X68841904Y-84240714D02*
X68841904Y-84907380D01*
X68413333Y-84240714D02*
X68413333Y-84764523D01*
X68460952Y-84859761D01*
X68556190Y-84907380D01*
X68699047Y-84907380D01*
X68794285Y-84859761D01*
X68841904Y-84812142D01*
X69651428Y-84383571D02*
X69318095Y-84383571D01*
X69318095Y-84907380D02*
X69318095Y-83907380D01*
X69794285Y-83907380D01*
%TO.C,C1*%
X61857142Y-83907380D02*
X61952380Y-83907380D01*
X62047619Y-83955000D01*
X62095238Y-84002619D01*
X62142857Y-84097857D01*
X62190476Y-84288333D01*
X62190476Y-84526428D01*
X62142857Y-84716904D01*
X62095238Y-84812142D01*
X62047619Y-84859761D01*
X61952380Y-84907380D01*
X61857142Y-84907380D01*
X61761904Y-84859761D01*
X61714285Y-84812142D01*
X61666666Y-84716904D01*
X61619047Y-84526428D01*
X61619047Y-84288333D01*
X61666666Y-84097857D01*
X61714285Y-84002619D01*
X61761904Y-83955000D01*
X61857142Y-83907380D01*
X62619047Y-84812142D02*
X62666666Y-84859761D01*
X62619047Y-84907380D01*
X62571428Y-84859761D01*
X62619047Y-84812142D01*
X62619047Y-84907380D01*
X63571428Y-83907380D02*
X63095238Y-83907380D01*
X63047619Y-84383571D01*
X63095238Y-84335952D01*
X63190476Y-84288333D01*
X63428571Y-84288333D01*
X63523809Y-84335952D01*
X63571428Y-84383571D01*
X63619047Y-84478809D01*
X63619047Y-84716904D01*
X63571428Y-84812142D01*
X63523809Y-84859761D01*
X63428571Y-84907380D01*
X63190476Y-84907380D01*
X63095238Y-84859761D01*
X63047619Y-84812142D01*
X64476190Y-84240714D02*
X64476190Y-84907380D01*
X64047619Y-84240714D02*
X64047619Y-84764523D01*
X64095238Y-84859761D01*
X64190476Y-84907380D01*
X64333333Y-84907380D01*
X64428571Y-84859761D01*
X64476190Y-84812142D01*
X65285714Y-84383571D02*
X64952380Y-84383571D01*
X64952380Y-84907380D02*
X64952380Y-83907380D01*
X65428571Y-83907380D01*
%TD*%
M02*
