M48
; DRILL file {KiCad 5.1.7} date Fri Oct 30 13:38:22 2020
; FORMAT={-:-/ absolute / metric / decimal}
; #@! TF.CreationDate,2020-10-30T13:38:22+01:00
; #@! TF.GenerationSoftware,Kicad,Pcbnew,5.1.7
; #@! TF.FileFunction,Plated,1,2,PTH
FMAT,2
METRIC
T1C0.600
T2C0.700
T3C1.200
%
G90
G05
T1
X68.58Y-80.645
X68.58Y-82.145
X63.5Y-80.645
X63.5Y-82.145
T2
X73.66Y-67.31
X81.28Y-67.31
X62.23Y-67.31
X69.85Y-67.31
X73.66Y-64.77
X81.28Y-64.77
X73.66Y-72.39
X81.28Y-72.39
X62.23Y-69.85
X69.85Y-69.85
X62.23Y-64.77
X69.85Y-64.77
X62.23Y-77.47
X69.85Y-77.47
X73.66Y-74.93
X81.28Y-74.93
X62.23Y-62.23
X69.85Y-62.23
X73.66Y-57.15
X81.28Y-57.15
X62.23Y-74.93
X69.85Y-74.93
X73.66Y-59.69
X81.28Y-59.69
X62.23Y-72.39
X69.85Y-72.39
X73.66Y-62.23
X81.28Y-62.23
X62.23Y-57.15
X69.85Y-57.15
X62.23Y-59.69
X69.85Y-59.69
X73.66Y-69.85
X81.28Y-69.85
T3
X72.875Y-78.395
X72.875Y-82.895
X80.375Y-77.745
X80.375Y-83.545
T0
M30
