%TF.GenerationSoftware,KiCad,Pcbnew,5.1.7*%
%TF.CreationDate,2020-10-30T13:38:14+01:00*%
%TF.ProjectId,silly-sound-bastard,73696c6c-792d-4736-9f75-6e642d626173,rev?*%
%TF.SameCoordinates,Original*%
%TF.FileFunction,Copper,L1,Top*%
%TF.FilePolarity,Positive*%
%FSLAX46Y46*%
G04 Gerber Fmt 4.6, Leading zero omitted, Abs format (unit mm)*
G04 Created by KiCad (PCBNEW 5.1.7) date 2020-10-30 13:38:14*
%MOMM*%
%LPD*%
G01*
G04 APERTURE LIST*
%TA.AperFunction,ComponentPad*%
%ADD10C,1.900000*%
%TD*%
%TA.AperFunction,ComponentPad*%
%ADD11R,1.900000X1.900000*%
%TD*%
%TA.AperFunction,ComponentPad*%
%ADD12O,1.400000X1.400000*%
%TD*%
%TA.AperFunction,ComponentPad*%
%ADD13C,1.400000*%
%TD*%
%TA.AperFunction,ComponentPad*%
%ADD14C,1.200000*%
%TD*%
%TA.AperFunction,ComponentPad*%
%ADD15R,1.200000X1.200000*%
%TD*%
%TA.AperFunction,SMDPad,CuDef*%
%ADD16R,3.480000X1.846667*%
%TD*%
%TA.AperFunction,Conductor*%
%ADD17C,0.350000*%
%TD*%
%TA.AperFunction,Conductor*%
%ADD18C,0.254000*%
%TD*%
%TA.AperFunction,Conductor*%
%ADD19C,0.100000*%
%TD*%
G04 APERTURE END LIST*
D10*
%TO.P,J2,S*%
%TO.N,GND*%
X72875000Y-78395000D03*
D11*
%TO.P,J2,R*%
%TO.N,Net-(C2-Pad2)*%
X72875000Y-82895000D03*
D10*
%TO.P,J2,T*%
X80375000Y-77745000D03*
X80375000Y-83545000D03*
%TD*%
D12*
%TO.P,R17,2*%
%TO.N,Net-(C1-Pad1)*%
X81280000Y-74930000D03*
D13*
%TO.P,R17,1*%
%TO.N,Net-(R16-Pad2)*%
X73660000Y-74930000D03*
%TD*%
D12*
%TO.P,R16,2*%
%TO.N,Net-(R16-Pad2)*%
X81280000Y-72390000D03*
D13*
%TO.P,R16,1*%
%TO.N,Net-(R15-Pad2)*%
X73660000Y-72390000D03*
%TD*%
D12*
%TO.P,R15,2*%
%TO.N,Net-(R15-Pad2)*%
X81280000Y-69850000D03*
D13*
%TO.P,R15,1*%
%TO.N,Net-(R14-Pad2)*%
X73660000Y-69850000D03*
%TD*%
D12*
%TO.P,R14,2*%
%TO.N,Net-(R14-Pad2)*%
X81280000Y-67310000D03*
D13*
%TO.P,R14,1*%
%TO.N,Net-(R13-Pad2)*%
X73660000Y-67310000D03*
%TD*%
D12*
%TO.P,R13,2*%
%TO.N,Net-(R13-Pad2)*%
X81280000Y-64770000D03*
D13*
%TO.P,R13,1*%
%TO.N,Net-(R12-Pad2)*%
X73660000Y-64770000D03*
%TD*%
D12*
%TO.P,R12,2*%
%TO.N,Net-(R12-Pad2)*%
X81280000Y-62230000D03*
D13*
%TO.P,R12,1*%
%TO.N,Net-(R11-Pad2)*%
X73660000Y-62230000D03*
%TD*%
D12*
%TO.P,R11,2*%
%TO.N,Net-(R11-Pad2)*%
X81280000Y-59690000D03*
D13*
%TO.P,R11,1*%
%TO.N,Net-(R10-Pad2)*%
X73660000Y-59690000D03*
%TD*%
D12*
%TO.P,R10,2*%
%TO.N,Net-(R10-Pad2)*%
X81280000Y-57150000D03*
D13*
%TO.P,R10,1*%
%TO.N,Net-(R1-Pad2)*%
X73660000Y-57150000D03*
%TD*%
D12*
%TO.P,R9,2*%
%TO.N,Net-(R16-Pad2)*%
X69850000Y-77470000D03*
D13*
%TO.P,R9,1*%
%TO.N,Net-(J1-Pad9)*%
X62230000Y-77470000D03*
%TD*%
D12*
%TO.P,R8,2*%
%TO.N,Net-(R15-Pad2)*%
X69850000Y-74930000D03*
D13*
%TO.P,R8,1*%
%TO.N,Net-(J1-Pad8)*%
X62230000Y-74930000D03*
%TD*%
D12*
%TO.P,R7,2*%
%TO.N,Net-(R14-Pad2)*%
X69850000Y-72390000D03*
D13*
%TO.P,R7,1*%
%TO.N,Net-(J1-Pad7)*%
X62230000Y-72390000D03*
%TD*%
D12*
%TO.P,R6,2*%
%TO.N,Net-(R13-Pad2)*%
X69850000Y-69850000D03*
D13*
%TO.P,R6,1*%
%TO.N,Net-(J1-Pad6)*%
X62230000Y-69850000D03*
%TD*%
D12*
%TO.P,R5,2*%
%TO.N,Net-(R12-Pad2)*%
X69850000Y-67310000D03*
D13*
%TO.P,R5,1*%
%TO.N,Net-(J1-Pad5)*%
X62230000Y-67310000D03*
%TD*%
D12*
%TO.P,R4,2*%
%TO.N,Net-(R11-Pad2)*%
X69850000Y-64770000D03*
D13*
%TO.P,R4,1*%
%TO.N,Net-(J1-Pad4)*%
X62230000Y-64770000D03*
%TD*%
D12*
%TO.P,R3,2*%
%TO.N,Net-(R10-Pad2)*%
X69850000Y-62230000D03*
D13*
%TO.P,R3,1*%
%TO.N,Net-(J1-Pad3)*%
X62230000Y-62230000D03*
%TD*%
D12*
%TO.P,R2,2*%
%TO.N,Net-(R1-Pad2)*%
X69850000Y-59690000D03*
D13*
%TO.P,R2,1*%
%TO.N,Net-(J1-Pad2)*%
X62230000Y-59690000D03*
%TD*%
D12*
%TO.P,R1,2*%
%TO.N,Net-(R1-Pad2)*%
X69850000Y-57150000D03*
D13*
%TO.P,R1,1*%
%TO.N,GND*%
X62230000Y-57150000D03*
%TD*%
D14*
%TO.P,C2,2*%
%TO.N,Net-(C2-Pad2)*%
X68580000Y-82145000D03*
D15*
%TO.P,C2,1*%
%TO.N,Net-(C1-Pad1)*%
X68580000Y-80645000D03*
%TD*%
D14*
%TO.P,C1,2*%
%TO.N,GND*%
X63500000Y-82145000D03*
D15*
%TO.P,C1,1*%
%TO.N,Net-(C1-Pad1)*%
X63500000Y-80645000D03*
%TD*%
D16*
%TO.P,J1,13*%
%TO.N,N/C*%
X58420000Y-90280000D03*
%TO.P,J1,12*%
X58420000Y-87510000D03*
%TO.P,J1,11*%
X58420000Y-84740000D03*
%TO.P,J1,10*%
X58420000Y-81970000D03*
%TO.P,J1,9*%
%TO.N,Net-(J1-Pad9)*%
X58420000Y-79200000D03*
%TO.P,J1,8*%
%TO.N,Net-(J1-Pad8)*%
X58420000Y-76430000D03*
%TO.P,J1,7*%
%TO.N,Net-(J1-Pad7)*%
X58420000Y-73660000D03*
%TO.P,J1,6*%
%TO.N,Net-(J1-Pad6)*%
X58420000Y-70890000D03*
%TO.P,J1,5*%
%TO.N,Net-(J1-Pad5)*%
X58420000Y-68120000D03*
%TO.P,J1,4*%
%TO.N,Net-(J1-Pad4)*%
X58420000Y-65350000D03*
%TO.P,J1,3*%
%TO.N,Net-(J1-Pad3)*%
X58420000Y-62580000D03*
%TO.P,J1,2*%
%TO.N,Net-(J1-Pad2)*%
X58420000Y-59810000D03*
%TO.P,J1,1*%
%TO.N,N/C*%
X58420000Y-57040000D03*
%TD*%
D17*
%TO.N,Net-(C1-Pad1)*%
X68580000Y-80645000D02*
X63500000Y-80645000D01*
X81280000Y-74930000D02*
X81153000Y-75057000D01*
X72734002Y-80645000D02*
X68580000Y-80645000D01*
X77749003Y-75629999D02*
X72734002Y-80645000D01*
X80580001Y-75629999D02*
X77749003Y-75629999D01*
X81280000Y-74930000D02*
X80580001Y-75629999D01*
%TO.N,Net-(C2-Pad2)*%
X80375000Y-84180000D02*
X80375000Y-78380000D01*
X72875000Y-82895000D02*
X73450001Y-82319999D01*
X72125000Y-82145000D02*
X72875000Y-82895000D01*
X68580000Y-82145000D02*
X72125000Y-82145000D01*
X78999999Y-82169999D02*
X80375000Y-83545000D01*
X73600001Y-82169999D02*
X78999999Y-82169999D01*
X72875000Y-82895000D02*
X73600001Y-82169999D01*
%TO.N,Net-(J1-Pad9)*%
X60500000Y-79200000D02*
X62230000Y-77470000D01*
X58420000Y-79200000D02*
X60500000Y-79200000D01*
%TO.N,Net-(J1-Pad8)*%
X60730000Y-76430000D02*
X62230000Y-74930000D01*
X58420000Y-76430000D02*
X60730000Y-76430000D01*
%TO.N,Net-(J1-Pad7)*%
X60960000Y-73660000D02*
X62230000Y-72390000D01*
X58420000Y-73660000D02*
X60960000Y-73660000D01*
%TO.N,Net-(J1-Pad6)*%
X61190000Y-70890000D02*
X62230000Y-69850000D01*
X58420000Y-70890000D02*
X61190000Y-70890000D01*
%TO.N,Net-(J1-Pad5)*%
X61420000Y-68120000D02*
X62230000Y-67310000D01*
X58420000Y-68120000D02*
X61420000Y-68120000D01*
%TO.N,Net-(J1-Pad4)*%
X61650000Y-65350000D02*
X62230000Y-64770000D01*
X58420000Y-65350000D02*
X61650000Y-65350000D01*
%TO.N,Net-(J1-Pad3)*%
X61880000Y-62580000D02*
X62230000Y-62230000D01*
X58420000Y-62580000D02*
X61880000Y-62580000D01*
%TO.N,Net-(J1-Pad2)*%
X62110000Y-59810000D02*
X62230000Y-59690000D01*
X58420000Y-59810000D02*
X62110000Y-59810000D01*
%TO.N,Net-(R1-Pad2)*%
X71120000Y-59690000D02*
X73660000Y-57150000D01*
X69850000Y-59690000D02*
X71120000Y-59690000D01*
X69850000Y-57150000D02*
X69850000Y-59690000D01*
%TO.N,Net-(R10-Pad2)*%
X71120000Y-62230000D02*
X73660000Y-59690000D01*
X69850000Y-62230000D02*
X71120000Y-62230000D01*
X78740000Y-59690000D02*
X81280000Y-57150000D01*
X73660000Y-59690000D02*
X78740000Y-59690000D01*
%TO.N,Net-(R11-Pad2)*%
X71120000Y-64770000D02*
X73660000Y-62230000D01*
X69850000Y-64770000D02*
X71120000Y-64770000D01*
X73660000Y-62230000D02*
X78740000Y-62230000D01*
X78740000Y-62230000D02*
X81280000Y-59690000D01*
%TO.N,Net-(R12-Pad2)*%
X71120000Y-67310000D02*
X73660000Y-64770000D01*
X69850000Y-67310000D02*
X71120000Y-67310000D01*
X78740000Y-64770000D02*
X81280000Y-62230000D01*
X73660000Y-64770000D02*
X78740000Y-64770000D01*
%TO.N,Net-(R13-Pad2)*%
X71120000Y-69850000D02*
X73660000Y-67310000D01*
X69850000Y-69850000D02*
X71120000Y-69850000D01*
X78740000Y-67310000D02*
X81280000Y-64770000D01*
X73660000Y-67310000D02*
X78740000Y-67310000D01*
%TO.N,Net-(R14-Pad2)*%
X71120000Y-72390000D02*
X73660000Y-69850000D01*
X69850000Y-72390000D02*
X71120000Y-72390000D01*
X78740000Y-69850000D02*
X81280000Y-67310000D01*
X73660000Y-69850000D02*
X78740000Y-69850000D01*
%TO.N,Net-(R15-Pad2)*%
X71120000Y-74930000D02*
X73660000Y-72390000D01*
X69850000Y-74930000D02*
X71120000Y-74930000D01*
X78740000Y-72390000D02*
X81280000Y-69850000D01*
X73660000Y-72390000D02*
X78740000Y-72390000D01*
%TO.N,Net-(R16-Pad2)*%
X71120000Y-77470000D02*
X73660000Y-74930000D01*
X69850000Y-77470000D02*
X71120000Y-77470000D01*
X78740000Y-74930000D02*
X81280000Y-72390000D01*
X73660000Y-74930000D02*
X78740000Y-74930000D01*
%TD*%
D18*
%TO.N,GND*%
X61648634Y-55941065D02*
X61547797Y-55994963D01*
X61488336Y-56228731D01*
X62230000Y-56970395D01*
X62971664Y-56228731D01*
X62912203Y-55994963D01*
X62772523Y-55930000D01*
X69306819Y-55930000D01*
X69217641Y-55966939D01*
X68998987Y-56113038D01*
X68813038Y-56298987D01*
X68666939Y-56517641D01*
X68566304Y-56760595D01*
X68515000Y-57018514D01*
X68515000Y-57281486D01*
X68566304Y-57539405D01*
X68666939Y-57782359D01*
X68813038Y-58001013D01*
X68998987Y-58186962D01*
X69040000Y-58214366D01*
X69040001Y-58625634D01*
X68998987Y-58653038D01*
X68813038Y-58838987D01*
X68666939Y-59057641D01*
X68566304Y-59300595D01*
X68515000Y-59558514D01*
X68515000Y-59821486D01*
X68566304Y-60079405D01*
X68666939Y-60322359D01*
X68813038Y-60541013D01*
X68998987Y-60726962D01*
X69217641Y-60873061D01*
X69427530Y-60960000D01*
X69217641Y-61046939D01*
X68998987Y-61193038D01*
X68813038Y-61378987D01*
X68666939Y-61597641D01*
X68566304Y-61840595D01*
X68515000Y-62098514D01*
X68515000Y-62361486D01*
X68566304Y-62619405D01*
X68666939Y-62862359D01*
X68813038Y-63081013D01*
X68998987Y-63266962D01*
X69217641Y-63413061D01*
X69427530Y-63500000D01*
X69217641Y-63586939D01*
X68998987Y-63733038D01*
X68813038Y-63918987D01*
X68666939Y-64137641D01*
X68566304Y-64380595D01*
X68515000Y-64638514D01*
X68515000Y-64901486D01*
X68566304Y-65159405D01*
X68666939Y-65402359D01*
X68813038Y-65621013D01*
X68998987Y-65806962D01*
X69217641Y-65953061D01*
X69427530Y-66040000D01*
X69217641Y-66126939D01*
X68998987Y-66273038D01*
X68813038Y-66458987D01*
X68666939Y-66677641D01*
X68566304Y-66920595D01*
X68515000Y-67178514D01*
X68515000Y-67441486D01*
X68566304Y-67699405D01*
X68666939Y-67942359D01*
X68813038Y-68161013D01*
X68998987Y-68346962D01*
X69217641Y-68493061D01*
X69427530Y-68580000D01*
X69217641Y-68666939D01*
X68998987Y-68813038D01*
X68813038Y-68998987D01*
X68666939Y-69217641D01*
X68566304Y-69460595D01*
X68515000Y-69718514D01*
X68515000Y-69981486D01*
X68566304Y-70239405D01*
X68666939Y-70482359D01*
X68813038Y-70701013D01*
X68998987Y-70886962D01*
X69217641Y-71033061D01*
X69427530Y-71120000D01*
X69217641Y-71206939D01*
X68998987Y-71353038D01*
X68813038Y-71538987D01*
X68666939Y-71757641D01*
X68566304Y-72000595D01*
X68515000Y-72258514D01*
X68515000Y-72521486D01*
X68566304Y-72779405D01*
X68666939Y-73022359D01*
X68813038Y-73241013D01*
X68998987Y-73426962D01*
X69217641Y-73573061D01*
X69427530Y-73660000D01*
X69217641Y-73746939D01*
X68998987Y-73893038D01*
X68813038Y-74078987D01*
X68666939Y-74297641D01*
X68566304Y-74540595D01*
X68515000Y-74798514D01*
X68515000Y-75061486D01*
X68566304Y-75319405D01*
X68666939Y-75562359D01*
X68813038Y-75781013D01*
X68998987Y-75966962D01*
X69217641Y-76113061D01*
X69427530Y-76200000D01*
X69217641Y-76286939D01*
X68998987Y-76433038D01*
X68813038Y-76618987D01*
X68666939Y-76837641D01*
X68566304Y-77080595D01*
X68515000Y-77338514D01*
X68515000Y-77601486D01*
X68566304Y-77859405D01*
X68666939Y-78102359D01*
X68813038Y-78321013D01*
X68998987Y-78506962D01*
X69217641Y-78653061D01*
X69460595Y-78753696D01*
X69718514Y-78805000D01*
X69981486Y-78805000D01*
X70239405Y-78753696D01*
X70482359Y-78653061D01*
X70701013Y-78506962D01*
X70886962Y-78321013D01*
X70914366Y-78280000D01*
X71080212Y-78280000D01*
X71120000Y-78283919D01*
X71159788Y-78280000D01*
X71159791Y-78280000D01*
X71278788Y-78268280D01*
X71294958Y-78263375D01*
X71283641Y-78459573D01*
X71326816Y-78768791D01*
X71429487Y-79063644D01*
X71515958Y-79225421D01*
X71775248Y-79315147D01*
X72695395Y-78395000D01*
X72681253Y-78380858D01*
X72860858Y-78201253D01*
X72875000Y-78215395D01*
X73795147Y-77295248D01*
X73705421Y-77035958D01*
X73424329Y-76900065D01*
X73122127Y-76821621D01*
X72925248Y-76810264D01*
X73480136Y-76255377D01*
X73528514Y-76265000D01*
X73791486Y-76265000D01*
X74049405Y-76213696D01*
X74292359Y-76113061D01*
X74511013Y-75966962D01*
X74696962Y-75781013D01*
X74724366Y-75740000D01*
X76493489Y-75740000D01*
X74368713Y-77864777D01*
X74320513Y-77726356D01*
X74234042Y-77564579D01*
X73974752Y-77474853D01*
X73054605Y-78395000D01*
X73068748Y-78409143D01*
X72889143Y-78588748D01*
X72875000Y-78574605D01*
X71954853Y-79494752D01*
X72044579Y-79754042D01*
X72212039Y-79835000D01*
X69779870Y-79835000D01*
X69769502Y-79800820D01*
X69710537Y-79690506D01*
X69631185Y-79593815D01*
X69534494Y-79514463D01*
X69424180Y-79455498D01*
X69304482Y-79419188D01*
X69180000Y-79406928D01*
X67980000Y-79406928D01*
X67855518Y-79419188D01*
X67735820Y-79455498D01*
X67625506Y-79514463D01*
X67528815Y-79593815D01*
X67449463Y-79690506D01*
X67390498Y-79800820D01*
X67380130Y-79835000D01*
X64699870Y-79835000D01*
X64689502Y-79800820D01*
X64630537Y-79690506D01*
X64551185Y-79593815D01*
X64454494Y-79514463D01*
X64344180Y-79455498D01*
X64224482Y-79419188D01*
X64100000Y-79406928D01*
X62900000Y-79406928D01*
X62775518Y-79419188D01*
X62655820Y-79455498D01*
X62545506Y-79514463D01*
X62448815Y-79593815D01*
X62369463Y-79690506D01*
X62310498Y-79800820D01*
X62274188Y-79920518D01*
X62261928Y-80045000D01*
X62261928Y-81245000D01*
X62274188Y-81369482D01*
X62310498Y-81489180D01*
X62369463Y-81599494D01*
X62383568Y-81616681D01*
X62325763Y-81743516D01*
X62270000Y-81980313D01*
X62261505Y-82223438D01*
X62300605Y-82463549D01*
X62385798Y-82691418D01*
X62426652Y-82767852D01*
X62650236Y-82815159D01*
X63320395Y-82145000D01*
X63306253Y-82130858D01*
X63485858Y-81951253D01*
X63500000Y-81965395D01*
X63514143Y-81951253D01*
X63693748Y-82130858D01*
X63679605Y-82145000D01*
X64349764Y-82815159D01*
X64573348Y-82767852D01*
X64674237Y-82546484D01*
X64730000Y-82309687D01*
X64738495Y-82066562D01*
X64699395Y-81826451D01*
X64619549Y-81612883D01*
X64630537Y-81599494D01*
X64689502Y-81489180D01*
X64699870Y-81455000D01*
X67380130Y-81455000D01*
X67390498Y-81489180D01*
X67449463Y-81599494D01*
X67462581Y-81615478D01*
X67392460Y-81784764D01*
X67345000Y-82023363D01*
X67345000Y-82266637D01*
X67392460Y-82505236D01*
X67485557Y-82729992D01*
X67620713Y-82932267D01*
X67792733Y-83104287D01*
X67995008Y-83239443D01*
X68219764Y-83332540D01*
X68458363Y-83380000D01*
X68701637Y-83380000D01*
X68940236Y-83332540D01*
X69164992Y-83239443D01*
X69367267Y-83104287D01*
X69516554Y-82955000D01*
X71286928Y-82955000D01*
X71286928Y-83845000D01*
X71299188Y-83969482D01*
X71335498Y-84089180D01*
X71394463Y-84199494D01*
X71473815Y-84296185D01*
X71570506Y-84375537D01*
X71680820Y-84434502D01*
X71800518Y-84470812D01*
X71925000Y-84483072D01*
X73825000Y-84483072D01*
X73949482Y-84470812D01*
X74069180Y-84434502D01*
X74179494Y-84375537D01*
X74276185Y-84296185D01*
X74355537Y-84199494D01*
X74414502Y-84089180D01*
X74450812Y-83969482D01*
X74463072Y-83845000D01*
X74463072Y-82979999D01*
X75750585Y-82979999D01*
X75740000Y-83033212D01*
X75740000Y-83256788D01*
X75783617Y-83476067D01*
X75869176Y-83682624D01*
X75993388Y-83868520D01*
X76151480Y-84026612D01*
X76337376Y-84150824D01*
X76543933Y-84236383D01*
X76763212Y-84280000D01*
X76986788Y-84280000D01*
X77206067Y-84236383D01*
X77412624Y-84150824D01*
X77598520Y-84026612D01*
X77756612Y-83868520D01*
X77880824Y-83682624D01*
X77966383Y-83476067D01*
X78010000Y-83256788D01*
X78010000Y-83033212D01*
X77999415Y-82979999D01*
X78664487Y-82979999D01*
X78837016Y-83152528D01*
X78790000Y-83388891D01*
X78790000Y-83701109D01*
X78850911Y-84007327D01*
X78970391Y-84295779D01*
X79143850Y-84555379D01*
X79364621Y-84776150D01*
X79624221Y-84949609D01*
X79912673Y-85069089D01*
X80218891Y-85130000D01*
X80531109Y-85130000D01*
X80837327Y-85069089D01*
X81125779Y-84949609D01*
X81385379Y-84776150D01*
X81606150Y-84555379D01*
X81779609Y-84295779D01*
X81899089Y-84007327D01*
X81960000Y-83701109D01*
X81960000Y-83388891D01*
X81899089Y-83082673D01*
X81779609Y-82794221D01*
X81606150Y-82534621D01*
X81385379Y-82313850D01*
X81185000Y-82179961D01*
X81185000Y-79110039D01*
X81385379Y-78976150D01*
X81606150Y-78755379D01*
X81779609Y-78495779D01*
X81899089Y-78207327D01*
X81960000Y-77901109D01*
X81960000Y-77588891D01*
X81899089Y-77282673D01*
X81779609Y-76994221D01*
X81606150Y-76734621D01*
X81385379Y-76513850D01*
X81125779Y-76340391D01*
X81036338Y-76303344D01*
X81095830Y-76254520D01*
X81148514Y-76265000D01*
X81411486Y-76265000D01*
X81669405Y-76213696D01*
X81912359Y-76113061D01*
X82131013Y-75966962D01*
X82316962Y-75781013D01*
X82463061Y-75562359D01*
X82563696Y-75319405D01*
X82615000Y-75061486D01*
X82615000Y-74798514D01*
X82563696Y-74540595D01*
X82463061Y-74297641D01*
X82316962Y-74078987D01*
X82131013Y-73893038D01*
X81912359Y-73746939D01*
X81702470Y-73660000D01*
X81912359Y-73573061D01*
X82131013Y-73426962D01*
X82316962Y-73241013D01*
X82463061Y-73022359D01*
X82563696Y-72779405D01*
X82615000Y-72521486D01*
X82615000Y-72258514D01*
X82563696Y-72000595D01*
X82463061Y-71757641D01*
X82316962Y-71538987D01*
X82131013Y-71353038D01*
X81912359Y-71206939D01*
X81702470Y-71120000D01*
X81912359Y-71033061D01*
X82131013Y-70886962D01*
X82316962Y-70701013D01*
X82463061Y-70482359D01*
X82563696Y-70239405D01*
X82615000Y-69981486D01*
X82615000Y-69718514D01*
X82563696Y-69460595D01*
X82463061Y-69217641D01*
X82316962Y-68998987D01*
X82131013Y-68813038D01*
X81912359Y-68666939D01*
X81702470Y-68580000D01*
X81912359Y-68493061D01*
X82131013Y-68346962D01*
X82316962Y-68161013D01*
X82463061Y-67942359D01*
X82563696Y-67699405D01*
X82615000Y-67441486D01*
X82615000Y-67178514D01*
X82563696Y-66920595D01*
X82463061Y-66677641D01*
X82316962Y-66458987D01*
X82131013Y-66273038D01*
X81912359Y-66126939D01*
X81702470Y-66040000D01*
X81912359Y-65953061D01*
X82131013Y-65806962D01*
X82316962Y-65621013D01*
X82463061Y-65402359D01*
X82563696Y-65159405D01*
X82615000Y-64901486D01*
X82615000Y-64638514D01*
X82563696Y-64380595D01*
X82463061Y-64137641D01*
X82316962Y-63918987D01*
X82131013Y-63733038D01*
X81912359Y-63586939D01*
X81702470Y-63500000D01*
X81912359Y-63413061D01*
X82131013Y-63266962D01*
X82316962Y-63081013D01*
X82463061Y-62862359D01*
X82563696Y-62619405D01*
X82615000Y-62361486D01*
X82615000Y-62098514D01*
X82563696Y-61840595D01*
X82463061Y-61597641D01*
X82316962Y-61378987D01*
X82131013Y-61193038D01*
X81912359Y-61046939D01*
X81702470Y-60960000D01*
X81912359Y-60873061D01*
X82131013Y-60726962D01*
X82316962Y-60541013D01*
X82463061Y-60322359D01*
X82563696Y-60079405D01*
X82615000Y-59821486D01*
X82615000Y-59558514D01*
X82563696Y-59300595D01*
X82463061Y-59057641D01*
X82316962Y-58838987D01*
X82131013Y-58653038D01*
X81912359Y-58506939D01*
X81702470Y-58420000D01*
X81912359Y-58333061D01*
X82131013Y-58186962D01*
X82316962Y-58001013D01*
X82463061Y-57782359D01*
X82563696Y-57539405D01*
X82615000Y-57281486D01*
X82615000Y-57018514D01*
X82563696Y-56760595D01*
X82463061Y-56517641D01*
X82316962Y-56298987D01*
X82131013Y-56113038D01*
X81912359Y-55966939D01*
X81823181Y-55930000D01*
X83135000Y-55930000D01*
X83135001Y-91390000D01*
X60766948Y-91390000D01*
X60785812Y-91327815D01*
X60798072Y-91203333D01*
X60798072Y-89356667D01*
X60785812Y-89232185D01*
X60749502Y-89112487D01*
X60690537Y-89002173D01*
X60611185Y-88905482D01*
X60598413Y-88895000D01*
X60611185Y-88884518D01*
X60690537Y-88787827D01*
X60749502Y-88677513D01*
X60785812Y-88557815D01*
X60798072Y-88433333D01*
X60798072Y-86586667D01*
X60785812Y-86462185D01*
X60749502Y-86342487D01*
X60690537Y-86232173D01*
X60611185Y-86135482D01*
X60598413Y-86125000D01*
X60611185Y-86114518D01*
X60690537Y-86017827D01*
X60749502Y-85907513D01*
X60785812Y-85787815D01*
X60798072Y-85663333D01*
X60798072Y-83816667D01*
X60785812Y-83692185D01*
X60749502Y-83572487D01*
X60690537Y-83462173D01*
X60611185Y-83365482D01*
X60598413Y-83355000D01*
X60611185Y-83344518D01*
X60690537Y-83247827D01*
X60749502Y-83137513D01*
X60785812Y-83017815D01*
X60788082Y-82994764D01*
X62829841Y-82994764D01*
X62877148Y-83218348D01*
X63098516Y-83319237D01*
X63335313Y-83375000D01*
X63578438Y-83383495D01*
X63818549Y-83344395D01*
X64046418Y-83259202D01*
X64122852Y-83218348D01*
X64170159Y-82994764D01*
X63500000Y-82324605D01*
X62829841Y-82994764D01*
X60788082Y-82994764D01*
X60798072Y-82893333D01*
X60798072Y-81046667D01*
X60785812Y-80922185D01*
X60749502Y-80802487D01*
X60690537Y-80692173D01*
X60611185Y-80595482D01*
X60598413Y-80585000D01*
X60611185Y-80574518D01*
X60690537Y-80477827D01*
X60749502Y-80367513D01*
X60785812Y-80247815D01*
X60798072Y-80123333D01*
X60798072Y-79956028D01*
X60811473Y-79951963D01*
X60952189Y-79876749D01*
X61075528Y-79775528D01*
X61100899Y-79744613D01*
X62050136Y-78795377D01*
X62098514Y-78805000D01*
X62361486Y-78805000D01*
X62619405Y-78753696D01*
X62862359Y-78653061D01*
X63081013Y-78506962D01*
X63266962Y-78321013D01*
X63413061Y-78102359D01*
X63513696Y-77859405D01*
X63565000Y-77601486D01*
X63565000Y-77338514D01*
X63513696Y-77080595D01*
X63413061Y-76837641D01*
X63266962Y-76618987D01*
X63081013Y-76433038D01*
X62862359Y-76286939D01*
X62652470Y-76200000D01*
X62862359Y-76113061D01*
X63081013Y-75966962D01*
X63266962Y-75781013D01*
X63413061Y-75562359D01*
X63513696Y-75319405D01*
X63565000Y-75061486D01*
X63565000Y-74798514D01*
X63513696Y-74540595D01*
X63413061Y-74297641D01*
X63266962Y-74078987D01*
X63081013Y-73893038D01*
X62862359Y-73746939D01*
X62652470Y-73660000D01*
X62862359Y-73573061D01*
X63081013Y-73426962D01*
X63266962Y-73241013D01*
X63413061Y-73022359D01*
X63513696Y-72779405D01*
X63565000Y-72521486D01*
X63565000Y-72258514D01*
X63513696Y-72000595D01*
X63413061Y-71757641D01*
X63266962Y-71538987D01*
X63081013Y-71353038D01*
X62862359Y-71206939D01*
X62652470Y-71120000D01*
X62862359Y-71033061D01*
X63081013Y-70886962D01*
X63266962Y-70701013D01*
X63413061Y-70482359D01*
X63513696Y-70239405D01*
X63565000Y-69981486D01*
X63565000Y-69718514D01*
X63513696Y-69460595D01*
X63413061Y-69217641D01*
X63266962Y-68998987D01*
X63081013Y-68813038D01*
X62862359Y-68666939D01*
X62652470Y-68580000D01*
X62862359Y-68493061D01*
X63081013Y-68346962D01*
X63266962Y-68161013D01*
X63413061Y-67942359D01*
X63513696Y-67699405D01*
X63565000Y-67441486D01*
X63565000Y-67178514D01*
X63513696Y-66920595D01*
X63413061Y-66677641D01*
X63266962Y-66458987D01*
X63081013Y-66273038D01*
X62862359Y-66126939D01*
X62652470Y-66040000D01*
X62862359Y-65953061D01*
X63081013Y-65806962D01*
X63266962Y-65621013D01*
X63413061Y-65402359D01*
X63513696Y-65159405D01*
X63565000Y-64901486D01*
X63565000Y-64638514D01*
X63513696Y-64380595D01*
X63413061Y-64137641D01*
X63266962Y-63918987D01*
X63081013Y-63733038D01*
X62862359Y-63586939D01*
X62652470Y-63500000D01*
X62862359Y-63413061D01*
X63081013Y-63266962D01*
X63266962Y-63081013D01*
X63413061Y-62862359D01*
X63513696Y-62619405D01*
X63565000Y-62361486D01*
X63565000Y-62098514D01*
X63513696Y-61840595D01*
X63413061Y-61597641D01*
X63266962Y-61378987D01*
X63081013Y-61193038D01*
X62862359Y-61046939D01*
X62652470Y-60960000D01*
X62862359Y-60873061D01*
X63081013Y-60726962D01*
X63266962Y-60541013D01*
X63413061Y-60322359D01*
X63513696Y-60079405D01*
X63565000Y-59821486D01*
X63565000Y-59558514D01*
X63513696Y-59300595D01*
X63413061Y-59057641D01*
X63266962Y-58838987D01*
X63081013Y-58653038D01*
X62862359Y-58506939D01*
X62648556Y-58418379D01*
X62811366Y-58358935D01*
X62912203Y-58305037D01*
X62971664Y-58071269D01*
X62230000Y-57329605D01*
X61488336Y-58071269D01*
X61547797Y-58305037D01*
X61786242Y-58415934D01*
X61805827Y-58420706D01*
X61597641Y-58506939D01*
X61378987Y-58653038D01*
X61193038Y-58838987D01*
X61085453Y-59000000D01*
X60798072Y-59000000D01*
X60798072Y-58886667D01*
X60785812Y-58762185D01*
X60749502Y-58642487D01*
X60690537Y-58532173D01*
X60611185Y-58435482D01*
X60598413Y-58425000D01*
X60611185Y-58414518D01*
X60690537Y-58317827D01*
X60749502Y-58207513D01*
X60785812Y-58087815D01*
X60798072Y-57963333D01*
X60798072Y-57224473D01*
X60890610Y-57224473D01*
X60930875Y-57484344D01*
X61021065Y-57731366D01*
X61074963Y-57832203D01*
X61308731Y-57891664D01*
X62050395Y-57150000D01*
X62409605Y-57150000D01*
X63151269Y-57891664D01*
X63385037Y-57832203D01*
X63495934Y-57593758D01*
X63558183Y-57338260D01*
X63569390Y-57075527D01*
X63529125Y-56815656D01*
X63438935Y-56568634D01*
X63385037Y-56467797D01*
X63151269Y-56408336D01*
X62409605Y-57150000D01*
X62050395Y-57150000D01*
X61308731Y-56408336D01*
X61074963Y-56467797D01*
X60964066Y-56706242D01*
X60901817Y-56961740D01*
X60890610Y-57224473D01*
X60798072Y-57224473D01*
X60798072Y-56116667D01*
X60785812Y-55992185D01*
X60766948Y-55930000D01*
X61678940Y-55930000D01*
X61648634Y-55941065D01*
%TA.AperFunction,Conductor*%
D19*
G36*
X61648634Y-55941065D02*
G01*
X61547797Y-55994963D01*
X61488336Y-56228731D01*
X62230000Y-56970395D01*
X62971664Y-56228731D01*
X62912203Y-55994963D01*
X62772523Y-55930000D01*
X69306819Y-55930000D01*
X69217641Y-55966939D01*
X68998987Y-56113038D01*
X68813038Y-56298987D01*
X68666939Y-56517641D01*
X68566304Y-56760595D01*
X68515000Y-57018514D01*
X68515000Y-57281486D01*
X68566304Y-57539405D01*
X68666939Y-57782359D01*
X68813038Y-58001013D01*
X68998987Y-58186962D01*
X69040000Y-58214366D01*
X69040001Y-58625634D01*
X68998987Y-58653038D01*
X68813038Y-58838987D01*
X68666939Y-59057641D01*
X68566304Y-59300595D01*
X68515000Y-59558514D01*
X68515000Y-59821486D01*
X68566304Y-60079405D01*
X68666939Y-60322359D01*
X68813038Y-60541013D01*
X68998987Y-60726962D01*
X69217641Y-60873061D01*
X69427530Y-60960000D01*
X69217641Y-61046939D01*
X68998987Y-61193038D01*
X68813038Y-61378987D01*
X68666939Y-61597641D01*
X68566304Y-61840595D01*
X68515000Y-62098514D01*
X68515000Y-62361486D01*
X68566304Y-62619405D01*
X68666939Y-62862359D01*
X68813038Y-63081013D01*
X68998987Y-63266962D01*
X69217641Y-63413061D01*
X69427530Y-63500000D01*
X69217641Y-63586939D01*
X68998987Y-63733038D01*
X68813038Y-63918987D01*
X68666939Y-64137641D01*
X68566304Y-64380595D01*
X68515000Y-64638514D01*
X68515000Y-64901486D01*
X68566304Y-65159405D01*
X68666939Y-65402359D01*
X68813038Y-65621013D01*
X68998987Y-65806962D01*
X69217641Y-65953061D01*
X69427530Y-66040000D01*
X69217641Y-66126939D01*
X68998987Y-66273038D01*
X68813038Y-66458987D01*
X68666939Y-66677641D01*
X68566304Y-66920595D01*
X68515000Y-67178514D01*
X68515000Y-67441486D01*
X68566304Y-67699405D01*
X68666939Y-67942359D01*
X68813038Y-68161013D01*
X68998987Y-68346962D01*
X69217641Y-68493061D01*
X69427530Y-68580000D01*
X69217641Y-68666939D01*
X68998987Y-68813038D01*
X68813038Y-68998987D01*
X68666939Y-69217641D01*
X68566304Y-69460595D01*
X68515000Y-69718514D01*
X68515000Y-69981486D01*
X68566304Y-70239405D01*
X68666939Y-70482359D01*
X68813038Y-70701013D01*
X68998987Y-70886962D01*
X69217641Y-71033061D01*
X69427530Y-71120000D01*
X69217641Y-71206939D01*
X68998987Y-71353038D01*
X68813038Y-71538987D01*
X68666939Y-71757641D01*
X68566304Y-72000595D01*
X68515000Y-72258514D01*
X68515000Y-72521486D01*
X68566304Y-72779405D01*
X68666939Y-73022359D01*
X68813038Y-73241013D01*
X68998987Y-73426962D01*
X69217641Y-73573061D01*
X69427530Y-73660000D01*
X69217641Y-73746939D01*
X68998987Y-73893038D01*
X68813038Y-74078987D01*
X68666939Y-74297641D01*
X68566304Y-74540595D01*
X68515000Y-74798514D01*
X68515000Y-75061486D01*
X68566304Y-75319405D01*
X68666939Y-75562359D01*
X68813038Y-75781013D01*
X68998987Y-75966962D01*
X69217641Y-76113061D01*
X69427530Y-76200000D01*
X69217641Y-76286939D01*
X68998987Y-76433038D01*
X68813038Y-76618987D01*
X68666939Y-76837641D01*
X68566304Y-77080595D01*
X68515000Y-77338514D01*
X68515000Y-77601486D01*
X68566304Y-77859405D01*
X68666939Y-78102359D01*
X68813038Y-78321013D01*
X68998987Y-78506962D01*
X69217641Y-78653061D01*
X69460595Y-78753696D01*
X69718514Y-78805000D01*
X69981486Y-78805000D01*
X70239405Y-78753696D01*
X70482359Y-78653061D01*
X70701013Y-78506962D01*
X70886962Y-78321013D01*
X70914366Y-78280000D01*
X71080212Y-78280000D01*
X71120000Y-78283919D01*
X71159788Y-78280000D01*
X71159791Y-78280000D01*
X71278788Y-78268280D01*
X71294958Y-78263375D01*
X71283641Y-78459573D01*
X71326816Y-78768791D01*
X71429487Y-79063644D01*
X71515958Y-79225421D01*
X71775248Y-79315147D01*
X72695395Y-78395000D01*
X72681253Y-78380858D01*
X72860858Y-78201253D01*
X72875000Y-78215395D01*
X73795147Y-77295248D01*
X73705421Y-77035958D01*
X73424329Y-76900065D01*
X73122127Y-76821621D01*
X72925248Y-76810264D01*
X73480136Y-76255377D01*
X73528514Y-76265000D01*
X73791486Y-76265000D01*
X74049405Y-76213696D01*
X74292359Y-76113061D01*
X74511013Y-75966962D01*
X74696962Y-75781013D01*
X74724366Y-75740000D01*
X76493489Y-75740000D01*
X74368713Y-77864777D01*
X74320513Y-77726356D01*
X74234042Y-77564579D01*
X73974752Y-77474853D01*
X73054605Y-78395000D01*
X73068748Y-78409143D01*
X72889143Y-78588748D01*
X72875000Y-78574605D01*
X71954853Y-79494752D01*
X72044579Y-79754042D01*
X72212039Y-79835000D01*
X69779870Y-79835000D01*
X69769502Y-79800820D01*
X69710537Y-79690506D01*
X69631185Y-79593815D01*
X69534494Y-79514463D01*
X69424180Y-79455498D01*
X69304482Y-79419188D01*
X69180000Y-79406928D01*
X67980000Y-79406928D01*
X67855518Y-79419188D01*
X67735820Y-79455498D01*
X67625506Y-79514463D01*
X67528815Y-79593815D01*
X67449463Y-79690506D01*
X67390498Y-79800820D01*
X67380130Y-79835000D01*
X64699870Y-79835000D01*
X64689502Y-79800820D01*
X64630537Y-79690506D01*
X64551185Y-79593815D01*
X64454494Y-79514463D01*
X64344180Y-79455498D01*
X64224482Y-79419188D01*
X64100000Y-79406928D01*
X62900000Y-79406928D01*
X62775518Y-79419188D01*
X62655820Y-79455498D01*
X62545506Y-79514463D01*
X62448815Y-79593815D01*
X62369463Y-79690506D01*
X62310498Y-79800820D01*
X62274188Y-79920518D01*
X62261928Y-80045000D01*
X62261928Y-81245000D01*
X62274188Y-81369482D01*
X62310498Y-81489180D01*
X62369463Y-81599494D01*
X62383568Y-81616681D01*
X62325763Y-81743516D01*
X62270000Y-81980313D01*
X62261505Y-82223438D01*
X62300605Y-82463549D01*
X62385798Y-82691418D01*
X62426652Y-82767852D01*
X62650236Y-82815159D01*
X63320395Y-82145000D01*
X63306253Y-82130858D01*
X63485858Y-81951253D01*
X63500000Y-81965395D01*
X63514143Y-81951253D01*
X63693748Y-82130858D01*
X63679605Y-82145000D01*
X64349764Y-82815159D01*
X64573348Y-82767852D01*
X64674237Y-82546484D01*
X64730000Y-82309687D01*
X64738495Y-82066562D01*
X64699395Y-81826451D01*
X64619549Y-81612883D01*
X64630537Y-81599494D01*
X64689502Y-81489180D01*
X64699870Y-81455000D01*
X67380130Y-81455000D01*
X67390498Y-81489180D01*
X67449463Y-81599494D01*
X67462581Y-81615478D01*
X67392460Y-81784764D01*
X67345000Y-82023363D01*
X67345000Y-82266637D01*
X67392460Y-82505236D01*
X67485557Y-82729992D01*
X67620713Y-82932267D01*
X67792733Y-83104287D01*
X67995008Y-83239443D01*
X68219764Y-83332540D01*
X68458363Y-83380000D01*
X68701637Y-83380000D01*
X68940236Y-83332540D01*
X69164992Y-83239443D01*
X69367267Y-83104287D01*
X69516554Y-82955000D01*
X71286928Y-82955000D01*
X71286928Y-83845000D01*
X71299188Y-83969482D01*
X71335498Y-84089180D01*
X71394463Y-84199494D01*
X71473815Y-84296185D01*
X71570506Y-84375537D01*
X71680820Y-84434502D01*
X71800518Y-84470812D01*
X71925000Y-84483072D01*
X73825000Y-84483072D01*
X73949482Y-84470812D01*
X74069180Y-84434502D01*
X74179494Y-84375537D01*
X74276185Y-84296185D01*
X74355537Y-84199494D01*
X74414502Y-84089180D01*
X74450812Y-83969482D01*
X74463072Y-83845000D01*
X74463072Y-82979999D01*
X75750585Y-82979999D01*
X75740000Y-83033212D01*
X75740000Y-83256788D01*
X75783617Y-83476067D01*
X75869176Y-83682624D01*
X75993388Y-83868520D01*
X76151480Y-84026612D01*
X76337376Y-84150824D01*
X76543933Y-84236383D01*
X76763212Y-84280000D01*
X76986788Y-84280000D01*
X77206067Y-84236383D01*
X77412624Y-84150824D01*
X77598520Y-84026612D01*
X77756612Y-83868520D01*
X77880824Y-83682624D01*
X77966383Y-83476067D01*
X78010000Y-83256788D01*
X78010000Y-83033212D01*
X77999415Y-82979999D01*
X78664487Y-82979999D01*
X78837016Y-83152528D01*
X78790000Y-83388891D01*
X78790000Y-83701109D01*
X78850911Y-84007327D01*
X78970391Y-84295779D01*
X79143850Y-84555379D01*
X79364621Y-84776150D01*
X79624221Y-84949609D01*
X79912673Y-85069089D01*
X80218891Y-85130000D01*
X80531109Y-85130000D01*
X80837327Y-85069089D01*
X81125779Y-84949609D01*
X81385379Y-84776150D01*
X81606150Y-84555379D01*
X81779609Y-84295779D01*
X81899089Y-84007327D01*
X81960000Y-83701109D01*
X81960000Y-83388891D01*
X81899089Y-83082673D01*
X81779609Y-82794221D01*
X81606150Y-82534621D01*
X81385379Y-82313850D01*
X81185000Y-82179961D01*
X81185000Y-79110039D01*
X81385379Y-78976150D01*
X81606150Y-78755379D01*
X81779609Y-78495779D01*
X81899089Y-78207327D01*
X81960000Y-77901109D01*
X81960000Y-77588891D01*
X81899089Y-77282673D01*
X81779609Y-76994221D01*
X81606150Y-76734621D01*
X81385379Y-76513850D01*
X81125779Y-76340391D01*
X81036338Y-76303344D01*
X81095830Y-76254520D01*
X81148514Y-76265000D01*
X81411486Y-76265000D01*
X81669405Y-76213696D01*
X81912359Y-76113061D01*
X82131013Y-75966962D01*
X82316962Y-75781013D01*
X82463061Y-75562359D01*
X82563696Y-75319405D01*
X82615000Y-75061486D01*
X82615000Y-74798514D01*
X82563696Y-74540595D01*
X82463061Y-74297641D01*
X82316962Y-74078987D01*
X82131013Y-73893038D01*
X81912359Y-73746939D01*
X81702470Y-73660000D01*
X81912359Y-73573061D01*
X82131013Y-73426962D01*
X82316962Y-73241013D01*
X82463061Y-73022359D01*
X82563696Y-72779405D01*
X82615000Y-72521486D01*
X82615000Y-72258514D01*
X82563696Y-72000595D01*
X82463061Y-71757641D01*
X82316962Y-71538987D01*
X82131013Y-71353038D01*
X81912359Y-71206939D01*
X81702470Y-71120000D01*
X81912359Y-71033061D01*
X82131013Y-70886962D01*
X82316962Y-70701013D01*
X82463061Y-70482359D01*
X82563696Y-70239405D01*
X82615000Y-69981486D01*
X82615000Y-69718514D01*
X82563696Y-69460595D01*
X82463061Y-69217641D01*
X82316962Y-68998987D01*
X82131013Y-68813038D01*
X81912359Y-68666939D01*
X81702470Y-68580000D01*
X81912359Y-68493061D01*
X82131013Y-68346962D01*
X82316962Y-68161013D01*
X82463061Y-67942359D01*
X82563696Y-67699405D01*
X82615000Y-67441486D01*
X82615000Y-67178514D01*
X82563696Y-66920595D01*
X82463061Y-66677641D01*
X82316962Y-66458987D01*
X82131013Y-66273038D01*
X81912359Y-66126939D01*
X81702470Y-66040000D01*
X81912359Y-65953061D01*
X82131013Y-65806962D01*
X82316962Y-65621013D01*
X82463061Y-65402359D01*
X82563696Y-65159405D01*
X82615000Y-64901486D01*
X82615000Y-64638514D01*
X82563696Y-64380595D01*
X82463061Y-64137641D01*
X82316962Y-63918987D01*
X82131013Y-63733038D01*
X81912359Y-63586939D01*
X81702470Y-63500000D01*
X81912359Y-63413061D01*
X82131013Y-63266962D01*
X82316962Y-63081013D01*
X82463061Y-62862359D01*
X82563696Y-62619405D01*
X82615000Y-62361486D01*
X82615000Y-62098514D01*
X82563696Y-61840595D01*
X82463061Y-61597641D01*
X82316962Y-61378987D01*
X82131013Y-61193038D01*
X81912359Y-61046939D01*
X81702470Y-60960000D01*
X81912359Y-60873061D01*
X82131013Y-60726962D01*
X82316962Y-60541013D01*
X82463061Y-60322359D01*
X82563696Y-60079405D01*
X82615000Y-59821486D01*
X82615000Y-59558514D01*
X82563696Y-59300595D01*
X82463061Y-59057641D01*
X82316962Y-58838987D01*
X82131013Y-58653038D01*
X81912359Y-58506939D01*
X81702470Y-58420000D01*
X81912359Y-58333061D01*
X82131013Y-58186962D01*
X82316962Y-58001013D01*
X82463061Y-57782359D01*
X82563696Y-57539405D01*
X82615000Y-57281486D01*
X82615000Y-57018514D01*
X82563696Y-56760595D01*
X82463061Y-56517641D01*
X82316962Y-56298987D01*
X82131013Y-56113038D01*
X81912359Y-55966939D01*
X81823181Y-55930000D01*
X83135000Y-55930000D01*
X83135001Y-91390000D01*
X60766948Y-91390000D01*
X60785812Y-91327815D01*
X60798072Y-91203333D01*
X60798072Y-89356667D01*
X60785812Y-89232185D01*
X60749502Y-89112487D01*
X60690537Y-89002173D01*
X60611185Y-88905482D01*
X60598413Y-88895000D01*
X60611185Y-88884518D01*
X60690537Y-88787827D01*
X60749502Y-88677513D01*
X60785812Y-88557815D01*
X60798072Y-88433333D01*
X60798072Y-86586667D01*
X60785812Y-86462185D01*
X60749502Y-86342487D01*
X60690537Y-86232173D01*
X60611185Y-86135482D01*
X60598413Y-86125000D01*
X60611185Y-86114518D01*
X60690537Y-86017827D01*
X60749502Y-85907513D01*
X60785812Y-85787815D01*
X60798072Y-85663333D01*
X60798072Y-83816667D01*
X60785812Y-83692185D01*
X60749502Y-83572487D01*
X60690537Y-83462173D01*
X60611185Y-83365482D01*
X60598413Y-83355000D01*
X60611185Y-83344518D01*
X60690537Y-83247827D01*
X60749502Y-83137513D01*
X60785812Y-83017815D01*
X60788082Y-82994764D01*
X62829841Y-82994764D01*
X62877148Y-83218348D01*
X63098516Y-83319237D01*
X63335313Y-83375000D01*
X63578438Y-83383495D01*
X63818549Y-83344395D01*
X64046418Y-83259202D01*
X64122852Y-83218348D01*
X64170159Y-82994764D01*
X63500000Y-82324605D01*
X62829841Y-82994764D01*
X60788082Y-82994764D01*
X60798072Y-82893333D01*
X60798072Y-81046667D01*
X60785812Y-80922185D01*
X60749502Y-80802487D01*
X60690537Y-80692173D01*
X60611185Y-80595482D01*
X60598413Y-80585000D01*
X60611185Y-80574518D01*
X60690537Y-80477827D01*
X60749502Y-80367513D01*
X60785812Y-80247815D01*
X60798072Y-80123333D01*
X60798072Y-79956028D01*
X60811473Y-79951963D01*
X60952189Y-79876749D01*
X61075528Y-79775528D01*
X61100899Y-79744613D01*
X62050136Y-78795377D01*
X62098514Y-78805000D01*
X62361486Y-78805000D01*
X62619405Y-78753696D01*
X62862359Y-78653061D01*
X63081013Y-78506962D01*
X63266962Y-78321013D01*
X63413061Y-78102359D01*
X63513696Y-77859405D01*
X63565000Y-77601486D01*
X63565000Y-77338514D01*
X63513696Y-77080595D01*
X63413061Y-76837641D01*
X63266962Y-76618987D01*
X63081013Y-76433038D01*
X62862359Y-76286939D01*
X62652470Y-76200000D01*
X62862359Y-76113061D01*
X63081013Y-75966962D01*
X63266962Y-75781013D01*
X63413061Y-75562359D01*
X63513696Y-75319405D01*
X63565000Y-75061486D01*
X63565000Y-74798514D01*
X63513696Y-74540595D01*
X63413061Y-74297641D01*
X63266962Y-74078987D01*
X63081013Y-73893038D01*
X62862359Y-73746939D01*
X62652470Y-73660000D01*
X62862359Y-73573061D01*
X63081013Y-73426962D01*
X63266962Y-73241013D01*
X63413061Y-73022359D01*
X63513696Y-72779405D01*
X63565000Y-72521486D01*
X63565000Y-72258514D01*
X63513696Y-72000595D01*
X63413061Y-71757641D01*
X63266962Y-71538987D01*
X63081013Y-71353038D01*
X62862359Y-71206939D01*
X62652470Y-71120000D01*
X62862359Y-71033061D01*
X63081013Y-70886962D01*
X63266962Y-70701013D01*
X63413061Y-70482359D01*
X63513696Y-70239405D01*
X63565000Y-69981486D01*
X63565000Y-69718514D01*
X63513696Y-69460595D01*
X63413061Y-69217641D01*
X63266962Y-68998987D01*
X63081013Y-68813038D01*
X62862359Y-68666939D01*
X62652470Y-68580000D01*
X62862359Y-68493061D01*
X63081013Y-68346962D01*
X63266962Y-68161013D01*
X63413061Y-67942359D01*
X63513696Y-67699405D01*
X63565000Y-67441486D01*
X63565000Y-67178514D01*
X63513696Y-66920595D01*
X63413061Y-66677641D01*
X63266962Y-66458987D01*
X63081013Y-66273038D01*
X62862359Y-66126939D01*
X62652470Y-66040000D01*
X62862359Y-65953061D01*
X63081013Y-65806962D01*
X63266962Y-65621013D01*
X63413061Y-65402359D01*
X63513696Y-65159405D01*
X63565000Y-64901486D01*
X63565000Y-64638514D01*
X63513696Y-64380595D01*
X63413061Y-64137641D01*
X63266962Y-63918987D01*
X63081013Y-63733038D01*
X62862359Y-63586939D01*
X62652470Y-63500000D01*
X62862359Y-63413061D01*
X63081013Y-63266962D01*
X63266962Y-63081013D01*
X63413061Y-62862359D01*
X63513696Y-62619405D01*
X63565000Y-62361486D01*
X63565000Y-62098514D01*
X63513696Y-61840595D01*
X63413061Y-61597641D01*
X63266962Y-61378987D01*
X63081013Y-61193038D01*
X62862359Y-61046939D01*
X62652470Y-60960000D01*
X62862359Y-60873061D01*
X63081013Y-60726962D01*
X63266962Y-60541013D01*
X63413061Y-60322359D01*
X63513696Y-60079405D01*
X63565000Y-59821486D01*
X63565000Y-59558514D01*
X63513696Y-59300595D01*
X63413061Y-59057641D01*
X63266962Y-58838987D01*
X63081013Y-58653038D01*
X62862359Y-58506939D01*
X62648556Y-58418379D01*
X62811366Y-58358935D01*
X62912203Y-58305037D01*
X62971664Y-58071269D01*
X62230000Y-57329605D01*
X61488336Y-58071269D01*
X61547797Y-58305037D01*
X61786242Y-58415934D01*
X61805827Y-58420706D01*
X61597641Y-58506939D01*
X61378987Y-58653038D01*
X61193038Y-58838987D01*
X61085453Y-59000000D01*
X60798072Y-59000000D01*
X60798072Y-58886667D01*
X60785812Y-58762185D01*
X60749502Y-58642487D01*
X60690537Y-58532173D01*
X60611185Y-58435482D01*
X60598413Y-58425000D01*
X60611185Y-58414518D01*
X60690537Y-58317827D01*
X60749502Y-58207513D01*
X60785812Y-58087815D01*
X60798072Y-57963333D01*
X60798072Y-57224473D01*
X60890610Y-57224473D01*
X60930875Y-57484344D01*
X61021065Y-57731366D01*
X61074963Y-57832203D01*
X61308731Y-57891664D01*
X62050395Y-57150000D01*
X62409605Y-57150000D01*
X63151269Y-57891664D01*
X63385037Y-57832203D01*
X63495934Y-57593758D01*
X63558183Y-57338260D01*
X63569390Y-57075527D01*
X63529125Y-56815656D01*
X63438935Y-56568634D01*
X63385037Y-56467797D01*
X63151269Y-56408336D01*
X62409605Y-57150000D01*
X62050395Y-57150000D01*
X61308731Y-56408336D01*
X61074963Y-56467797D01*
X60964066Y-56706242D01*
X60901817Y-56961740D01*
X60890610Y-57224473D01*
X60798072Y-57224473D01*
X60798072Y-56116667D01*
X60785812Y-55992185D01*
X60766948Y-55930000D01*
X61678940Y-55930000D01*
X61648634Y-55941065D01*
G37*
%TD.AperFunction*%
%TD*%
M02*
